<svg width="192" height="50" viewBox="0 0 192 50" fill="none" xmlns="http://www.w3.org/2000/svg">
<g clip-path="url(#clip0)">
<path d="M10.3249 25.8032C8.86435 25.6341 8.44189 25.4528 8.90056 23.9183C9.91447 20.5713 12.7269 11.2675 13.946 7.60644C14.7064 5.55235 15.0564 5.3107 16.2393 5.1657C16.9997 5.05696 17.036 4.68239 16.3479 4.68239C15.8289 4.68239 14.815 4.82738 13.5597 4.82738C12.6544 4.82738 11.5802 4.71864 10.8801 4.71864C10.0472 4.71864 10.2162 5.06904 10.9887 5.20195C12.413 5.38319 12.4492 5.97525 12.1716 7.15937C11.3388 10.6755 8.41775 20.0518 7.16244 23.435C6.42615 25.4528 6.14853 25.6703 4.55525 25.8395C3.85517 25.8757 3.79482 26.3228 4.55525 26.3228C5.14669 26.3228 6.3658 26.1778 7.23486 26.1778C7.97115 26.1778 9.74548 26.2865 10.3007 26.2865C11.0974 26.2865 11.0611 25.8999 10.3249 25.8032Z" fill="black"/>
<path d="M25.6783 16.5357C26.0646 15.557 26.306 14.8682 26.306 14.4453C26.306 13.8895 25.9922 13.2975 25.2559 13.2975C22.6487 13.2975 19.5466 16.8136 18.1223 18.5535C17.9533 18.7952 17.7723 18.7589 17.8809 18.4448C19.1362 15.7986 19.3414 14.9287 19.4138 14.6507C19.5225 14.3003 19.4501 13.2975 18.4724 13.2975C16.5532 13.2975 15.5513 15.3153 15.3341 15.9799C15.2254 16.4028 15.4427 16.4269 15.6117 16.1853C16.3721 15.0736 17.1446 14.7595 17.6637 14.7595C18.1827 14.7595 18.2189 15.0374 18.0137 15.5207C17.3498 16.9465 14.984 22.3838 13.946 24.7883C13.7408 25.2353 13.5235 25.8032 13.4994 26.0449C13.4994 26.2503 13.5356 26.3953 13.7046 26.3953C14.1512 26.3953 14.6099 26.2503 14.7547 25.9724C16.4928 22.9396 17.8568 20.1484 19.4501 18.0219C21.8883 14.8199 23.3126 14.1916 24.1816 14.1916C24.8093 14.1916 24.9179 14.8199 24.7369 15.412C24.1816 17.0794 20.4157 25.2716 20.2829 25.6582C20.1381 26.0086 20.1743 26.6369 20.6692 26.6369C21.9245 26.6369 24.4955 24.4016 25.6421 22.6979C26.0284 22.1421 25.9922 21.7555 25.6421 22.1059C24.6644 23.2537 23.0712 24.4016 22.7211 24.4016C22.4797 24.4016 22.4435 24.3291 22.5159 24.015C23.0712 22.6617 24.8093 18.9039 25.6783 16.5357Z" fill="black"/>
<path d="M36.3606 13.817C36.3606 13.7445 36.2157 13.672 36.1554 13.672C35.1777 13.672 34.1034 13.7445 33.4758 13.7445C33.4395 13.7445 33.4033 13.5754 33.4395 13.5029C33.6447 12.8383 33.9224 11.8596 34.2 10.9292C34.3086 10.6513 34.2362 10.5426 34.1276 10.5426C33.7413 10.5426 33.2223 10.8567 33.0533 11.0984C32.667 11.6904 32.1118 13.0558 31.8342 13.6116C31.798 13.6841 31.6652 13.8533 31.5928 13.8533C30.6513 13.8895 30.2409 13.962 30.0599 13.9983C29.9512 13.9983 29.6736 14.2762 29.6736 14.4212C29.6736 14.4574 29.6736 14.4936 29.8788 14.5299C30.3013 14.5661 30.7479 14.5299 31.3031 14.5661C31.4721 14.5661 31.4117 14.8078 31.3755 14.989C30.3616 17.9131 28.6235 23.2537 28.2131 24.4016C28.0441 24.9936 27.8268 25.5495 27.8268 25.9724C27.8268 26.3953 28.2131 26.7094 28.3821 26.7094C29.4322 26.7094 31.6893 24.8245 32.8722 22.9758C33.1499 22.5529 33.2947 21.9609 32.7033 22.5892C31.4117 24.0149 30.3375 24.6432 29.9512 24.6432C29.746 24.6432 29.7098 24.3291 29.7822 24.0874C30.7599 20.9821 32.4981 15.9315 32.8843 14.989C32.9567 14.7836 33.0895 14.5057 33.2343 14.5057C33.512 14.5057 34.9001 14.397 35.6363 14.3366C36.1916 14.2278 36.3606 13.8774 36.3606 13.817Z" fill="black"/>
<path d="M42.8785 13.2612C41.237 13.2612 39.185 14.7957 37.7969 16.7169C36.783 18.1789 35.4311 21.103 35.4311 23.447C35.4311 25.3682 36.4813 26.6853 37.5555 26.6853C39.2574 26.6853 40.6214 25.4286 41.3094 24.2808C41.587 23.6887 41.6232 23.4108 41.6232 23.3021C41.6232 23.0604 41.5146 23.1329 41.418 23.2658C40.549 24.3412 39.4626 25.2474 38.4608 25.2474C37.0003 25.2474 36.9641 24.0633 36.9641 23.5437C36.9641 22.4925 37.4107 20.6197 37.7969 19.6772C37.8331 19.6047 37.9418 19.3993 38.0745 19.3993C39.6437 19.3268 41.4904 18.6622 42.9147 17.5506C44.0614 16.6806 44.7253 15.569 44.7253 14.8682C44.7253 13.9862 44.1942 13.2612 42.8785 13.2612ZM38.3159 18.9401C38.1711 18.9764 38.1107 18.9401 38.1107 18.8676C39.2212 15.8711 41.1042 13.7083 42.7095 13.7083C43.1561 13.7083 43.4458 14.1553 43.4458 14.7595C43.4338 16.1128 40.4403 18.6864 38.3159 18.9401Z" fill="black"/>
<path d="M54.7436 13.2612C53.9108 13.2612 52.6917 14.0949 51.6416 15.4965C50.7363 16.6082 49.7948 18.1427 48.962 19.508C48.793 19.8222 48.6119 19.7497 48.7205 19.3389C48.9257 18.5052 50.1086 15.5449 50.1086 14.7353C50.1086 13.9983 49.7948 13.4787 49.2034 13.4787C47.2842 13.4787 46.0047 15.9557 45.9685 16.6202C45.9685 16.7894 46.1134 16.8981 46.2823 16.729C46.8738 16.1369 47.8877 14.989 48.6481 14.989C48.8895 14.989 48.962 15.2307 48.7568 15.9315C47.1514 20.668 45.5581 25.622 45.4857 25.9724C45.4133 26.1778 45.4495 26.3228 45.5219 26.4194C45.6909 26.6248 45.9685 26.6973 46.1858 26.6973C46.3306 26.6973 46.5358 26.5282 46.7048 26.1053C47.8877 23.4229 48.962 21.1513 49.9759 19.2422C51.7864 15.8228 52.9331 14.397 53.6332 14.397C54.1522 14.397 54.1884 14.989 54.1884 15.8228C54.1522 16.1732 54.297 16.2698 54.5022 16.2698C54.7436 16.2698 55.7575 15.569 55.7575 14.4574C55.7938 13.9137 55.4799 13.2612 54.7436 13.2612Z" fill="black"/>
<path d="M67.5502 22.1059C66.5725 23.2537 64.9793 24.4016 64.6292 24.4016C64.3878 24.4016 64.3516 24.3291 64.424 24.0149C64.9793 22.6617 66.7174 18.8918 67.5864 16.5236C67.9727 15.5449 68.2141 14.8561 68.2141 14.4332C68.2141 13.8774 67.9003 13.2854 67.164 13.2854C64.5568 13.2854 61.4547 16.8015 60.0304 18.5414C59.8615 18.7831 59.6804 18.7468 59.789 18.4327C61.0443 15.7865 61.2495 14.9166 61.322 14.6386C61.4306 14.2882 61.3582 13.2854 60.3805 13.2854C58.4613 13.2854 57.4595 15.3032 57.2422 15.9678C57.1336 16.3907 57.3508 16.4148 57.5198 16.1732C58.2802 15.0615 59.0527 14.7474 59.5718 14.7474C60.0908 14.7474 60.127 15.0253 59.9218 15.5086C59.2579 16.9344 56.8922 22.3717 55.8541 24.7762C55.6489 25.2232 55.4317 25.7911 55.4075 26.0328C55.4075 26.2382 55.4437 26.3832 55.6127 26.3832C56.0593 26.3832 56.518 26.2382 56.6628 25.9603C58.4009 22.9275 59.7649 20.1363 61.3582 18.0098C63.7964 14.8078 65.2207 14.1795 66.0897 14.1795C66.7174 14.1795 66.826 14.8078 66.645 15.3999C66.0897 17.0673 62.3238 25.2595 62.191 25.6461C62.0462 25.9965 62.0824 26.6248 62.5773 26.6248C63.8326 26.6248 66.4036 24.3895 67.5502 22.6858C67.9365 22.1421 67.9003 21.7554 67.5502 22.1059Z" fill="black"/>
<path d="M81.3346 13.5029C81.0932 13.3337 80.8518 13.2249 80.6707 13.2249C80.5621 13.2249 80.3207 13.4304 79.9103 14.2037C79.8741 14.2762 79.7654 14.3124 79.7413 14.2762C79.5964 14.1312 79.2585 13.9982 79.0774 13.9982C78.6308 13.9982 76.953 14.977 75.6012 16.0161C73.7182 17.4419 71.8473 19.5322 70.6523 21.3446C69.6022 22.9154 69.0108 24.4499 69.0108 25.2836C69.0108 26.1899 69.4936 26.7094 70.0609 26.7094C71.0748 26.7094 73.6096 24.8607 77.5445 20.5472C77.6169 20.4747 77.7135 20.4747 77.6531 20.6559C76.7479 23.2054 75.6012 25.8153 75.6012 26.2624C75.6012 26.5765 75.9512 26.7094 76.3375 26.7094C78.0394 26.7094 80.1275 24.5103 80.9 23.0121C81.0087 22.8067 81.069 22.6254 81.069 22.5288C81.1052 22.2871 80.9604 22.2871 80.7914 22.4563C79.8861 23.7491 78.7032 24.8245 77.7618 24.8245C77.6169 24.8245 77.5204 24.6795 77.5566 24.5828C78.8843 20.5713 81.1414 14.8199 81.3829 14.0587C81.4432 13.817 81.4432 13.5753 81.3346 13.5029ZM79.2223 15.7986C78.2808 18.5535 76.265 21.405 73.9958 23.4591C72.8129 24.5103 71.9076 25.1024 71.2438 25.1024C70.8575 25.1024 70.7972 24.6795 70.7972 24.4741C70.7972 23.145 72.4387 19.7739 73.8993 18.2393C75.0097 17.019 76.8565 15.4119 78.3894 15.4119C78.7395 15.4119 79.0895 15.5569 79.2223 15.6174C79.2223 15.6657 79.2223 15.7623 79.2223 15.7986Z" fill="black"/>
<path d="M91.0874 2C91.0149 2 90.8097 2.03625 90.5683 2.10875C89.9407 2.24166 88.8906 2.31415 88.2026 2.4229C87.7197 2.53165 87.7197 2.66456 88.0336 2.7733C89.3251 3.08746 89.2889 3.47411 89.0475 4.23533C88.106 7.75144 83.6883 21.103 83.0244 24.172C82.9158 24.5587 82.7106 25.4649 82.7106 25.9482C82.7106 26.2624 82.9882 26.7094 83.4107 26.7094C84.7987 26.7094 86.7179 24.5466 87.4783 23.0846C87.7922 22.565 87.6473 22.3234 87.4059 22.6375C86.4644 23.9304 85.2091 25.0058 84.5815 24.9695C84.4125 24.9695 84.1952 24.7278 84.3401 24.2083C85.1367 21.5621 89.9769 6.02359 90.9546 3.36536C91.2201 2.51956 91.2563 2 91.0874 2Z" fill="black"/>
<path d="M112.078 6.70022C110.931 5.72151 108.457 4.50114 105.632 4.50114C103.399 4.50114 102.325 4.7428 101.214 4.7428C100.514 4.7428 99.1624 4.7428 98.8848 4.7428C98.2572 4.7428 98.2572 5.1657 98.8848 5.22612C99.2349 5.26236 100.068 5.29861 100.49 5.39528C101.154 5.56444 101.251 6.05983 100.49 8.56098C99.2349 12.8866 97.2915 19.3631 95.9276 23.1933C95.2637 25.2112 94.5757 25.7428 93.3566 25.767C92.3789 25.8032 92.1737 26.3228 93.2842 26.3228C93.6704 26.3228 96.1328 26.1536 97.883 26.1536C98.8607 26.1536 100.49 26.2624 101.577 26.2624C103.942 26.2624 107.358 25.5253 109.519 24.0995C110.593 23.3383 115.083 20.088 115.083 13.6841C115.071 10.8809 114.093 8.37974 112.078 6.70022ZM106.827 24.4016C105.125 25.4528 102.301 25.7307 100.671 25.7307C99.7298 25.7307 98.4744 25.5616 98.064 25.1387C97.7502 24.897 97.7864 23.9908 97.8588 23.6766C98.1123 22.42 101.77 10.3613 103.206 6.14441C103.315 5.86651 103.628 5.06904 104.944 5.06904C108.493 5.06904 112.983 6.99021 112.983 13.672C112.983 18.5173 110.412 22.2509 106.827 24.4016Z" fill="black"/>
<path d="M122.132 9.76927C122.446 9.76927 123.146 9.41887 123.146 8.71806C123.146 8.44015 123.001 7.73935 122.313 7.73935C121.794 7.73935 121.299 8.29516 121.299 8.81472C121.299 9.3222 121.613 9.76927 122.132 9.76927Z" fill="black"/>
<path d="M120.635 23.7854C120.913 23.3987 121.082 22.71 120.467 23.3987C120.02 23.9183 118.378 25.4528 117.823 25.4528C117.654 25.4528 117.545 25.3078 117.787 24.752C118.523 23.0846 120.853 17.5023 121.541 15.7986C121.782 15.2065 122.024 14.3366 122.024 14.0587C122.024 13.7808 121.915 13.2612 121.505 13.2612C120.768 13.2612 119.066 14.0949 117.533 16.0161C117.256 16.4027 117.183 16.9586 117.775 16.3302C118.789 15.279 119.658 14.687 120.213 14.687C120.382 14.687 120.454 14.8924 120.249 15.3153C119.103 17.8285 117.606 21.6588 117.014 22.9516C116.387 24.4137 116.073 25.3561 116.073 25.7428C116.073 26.2261 116.459 26.6853 116.701 26.6853C117.618 26.6732 119.175 25.8032 120.635 23.7854Z" fill="black"/>
<path d="M134.492 13.5029C134.251 13.3337 134.009 13.2249 133.828 13.2249C133.72 13.2249 133.478 13.4304 133.068 14.2037C133.032 14.2762 132.923 14.3124 132.899 14.2762C132.754 14.1312 132.416 13.9982 132.235 13.9982C131.776 13.9982 130.111 14.977 128.759 16.0161C126.876 17.4419 125.005 19.5322 123.81 21.3446C122.76 22.9154 122.168 24.4499 122.168 25.2836C122.168 26.1899 122.651 26.7094 123.219 26.7094C124.232 26.7094 126.767 24.8607 130.702 20.5472C130.775 20.4747 130.871 20.4747 130.811 20.6559C129.905 23.2054 128.759 25.8153 128.759 26.2624C128.759 26.5765 129.109 26.7094 129.495 26.7094C131.197 26.7094 133.285 24.5103 134.058 23.0121C134.166 22.8067 134.227 22.6254 134.227 22.5288C134.263 22.2871 134.118 22.2871 133.949 22.4563C133.044 23.7491 131.861 24.8245 130.919 24.8245C130.775 24.8245 130.678 24.6795 130.714 24.5828C132.042 20.5713 134.299 14.8199 134.54 14.0587C134.601 13.817 134.601 13.5753 134.492 13.5029ZM132.368 15.7986C131.426 18.5535 129.411 21.405 127.141 23.4591C125.959 24.5103 125.053 25.1024 124.389 25.1024C124.003 25.1024 123.931 24.6795 123.931 24.4741C123.931 23.145 125.572 19.7739 127.033 18.2393C128.143 17.019 129.99 15.4119 131.523 15.4119C131.873 15.4119 132.223 15.5569 132.356 15.6174C132.368 15.6657 132.368 15.7623 132.368 15.7986Z" fill="black"/>
<path d="M140.552 22.6254C139.61 23.9183 138.355 24.9937 137.727 24.9574C137.558 24.9574 137.341 24.7158 137.486 24.1962C138.282 21.5501 143.123 6.01151 144.1 3.35328C144.378 2.51956 144.414 2 144.245 2C144.173 2 143.968 2.03625 143.726 2.10875C143.098 2.25374 142.06 2.31415 141.36 2.4229C140.878 2.53165 140.878 2.66456 141.191 2.7733C142.483 3.08746 142.447 3.47411 142.205 4.23533C141.264 7.75144 136.846 21.103 136.182 24.172C136.073 24.5587 135.868 25.4649 135.868 25.9482C135.868 26.2624 136.146 26.7094 136.568 26.7094C137.956 26.7094 139.876 24.5466 140.636 23.0846C140.938 22.565 140.793 22.3113 140.552 22.6254Z" fill="black"/>
<path d="M149.604 13.2612C148.313 13.2612 146.72 14.0224 145.078 16.0523C143.509 17.9735 142.567 21.0063 142.567 22.8792C142.567 25.5253 143.75 26.6732 144.897 26.6732C145.875 26.6732 146.78 26.3953 147.963 25.5253C149.459 24.4499 152.03 20.8613 152.03 17.2606C152.043 15.7986 151.692 13.2612 149.604 13.2612ZM150.642 16.2577C150.642 18.6622 149.146 22.3596 147.54 24.4499C146.563 25.7065 145.766 26.1899 145.102 26.1899C144.342 26.1899 143.883 25.3924 143.883 24.027C143.883 21.6588 144.788 19.1456 146.08 17.0915C147.504 14.7957 148.687 13.7083 149.665 13.7083C150.679 13.7083 150.642 15.4119 150.642 16.2577Z" fill="black"/>
<path d="M165.754 14.542C165.754 14.3004 165.549 14.0587 165.235 14.0587C164.813 14.0587 163.534 14.0949 163.075 14.0949C162.797 14.0949 162.556 14.0224 162.278 13.8533C162.001 13.6479 161.518 13.3337 161.059 13.3337C160.431 13.3337 159.043 13.6479 157.752 14.7233C155.796 16.4269 154.408 19.1456 154.408 21.7917C154.408 22.4925 154.686 23.6042 155.7 24.4016C155.772 24.4379 155.845 24.5466 155.772 24.5708C155.422 24.7399 155.012 25.1991 154.795 25.4045C154.445 25.6824 154.312 26.0691 154.312 26.3832C154.312 26.939 154.481 27.7727 155.495 28.7152C155.567 28.7877 155.567 28.9206 155.422 28.9569C153.612 29.3435 152.429 29.6939 150.823 30.6968C149.954 31.2526 149.399 31.9534 149.363 32.7146C149.327 33.4759 149.785 34.4908 150.896 35.2279C152.634 36.4482 154.722 36.8349 156.086 36.8349C157.341 36.8349 158.561 36.6899 160.093 35.8924C161.445 35.1916 162.109 34.2492 162.109 33.3792C162.109 32.5455 161.204 31.2889 160.468 30.5881C159.357 29.5127 158.379 28.7394 157.269 27.9419C155.977 26.9994 155.664 26.2382 155.664 25.7791C155.664 25.3562 155.664 24.9454 156.364 24.6312C156.533 24.5225 156.678 24.4862 157.474 24.3533C158.343 24.2083 159.49 23.3383 160.468 22.2267C161.687 20.8372 163.015 17.9373 163.015 16.0645C163.015 15.9195 162.978 15.3274 162.942 15.0495C162.942 14.8803 163.014 14.8441 163.051 14.8803C163.57 14.9166 164.897 15.0857 165.175 15.0857C165.344 15.0978 165.754 14.7837 165.754 14.542ZM155.736 29.3194C155.881 29.2831 155.941 29.3193 156.255 29.4281C157.124 29.8752 158.343 30.7572 159.635 32.0742C160.685 33.1496 160.781 33.8142 160.781 34.2008C160.781 35.107 159.912 35.8441 157.86 35.8441C155.108 35.8441 153.479 35.2158 152.115 34.4546C151.041 33.7538 150.932 33.065 150.932 32.7509C150.932 31.3372 153.117 29.9839 155.736 29.3194ZM158.162 23.0846C157.498 23.7129 156.907 24.0271 156.497 24.0271C156.05 24.0271 155.519 23.8216 155.519 22.6013C155.519 21.4172 156.279 18.2756 158.271 15.8711C159.937 13.9137 160.709 13.9137 160.987 13.9137C161.651 13.9137 161.856 14.5058 161.856 15.1703C161.856 16.9103 159.804 21.4776 158.162 23.0846Z" fill="black"/>
<path d="M177.137 15.6294C177.897 13.672 177.801 13.2974 177.451 13.2974C177.137 13.2974 176.823 13.6116 176.654 13.8895C175.435 15.9798 173.274 19.7134 171.053 22.1542C168.796 24.5949 167.577 25.3561 166.986 25.3561C166.708 25.3561 166.599 25.0782 166.708 24.7278C167.577 22.3596 170.329 15.9073 170.607 15.1461C171.029 13.8895 170.848 13.2612 170.329 13.2612C169.219 13.2612 166.877 15.279 166.153 16.5719C165.875 16.8861 165.73 17.4419 166.394 16.8498C167.336 15.9798 168.313 15.2065 168.796 15.2065C168.965 15.2065 168.941 15.4119 168.869 15.5932C168.036 17.7923 166.394 21.3809 165.525 23.882C165.139 25.0661 165.078 25.8032 165.32 26.2865C165.429 26.5644 165.634 26.7094 165.875 26.7094C166.189 26.7094 166.636 26.6369 167.722 25.8394C169.882 24.2687 172.562 21.3809 173.95 19.6772C174.3 19.3268 174.373 19.363 174.228 19.8222C173.395 22.0213 172.562 23.8941 172.272 24.6312C172.067 25.187 171.995 25.7065 171.995 26.0569C171.995 26.4798 172.2 26.7215 172.478 26.7215C173.528 26.7215 175.93 24.9453 177.04 22.9275C177.245 22.5408 177.318 22.0213 176.835 22.5771C176.666 22.7825 174.988 24.6312 174.047 24.6312C173.769 24.6312 173.733 24.3895 173.938 23.8699C175.193 20.8492 176.159 18.0943 177.137 15.6294Z" fill="black"/>
<path d="M186.153 13.2612C184.512 13.2612 182.46 14.7957 181.072 16.7169C180.058 18.1789 178.706 21.103 178.706 23.447C178.706 25.3682 179.756 26.6853 180.83 26.6853C182.532 26.6853 183.896 25.4286 184.584 24.2808C184.862 23.6887 184.898 23.4108 184.898 23.3021C184.898 23.0604 184.789 23.1329 184.693 23.2658C183.824 24.3412 182.737 25.2474 181.736 25.2474C180.275 25.2474 180.239 24.0633 180.239 23.5437C180.239 22.4925 180.685 20.6197 181.072 19.6772C181.108 19.6047 181.217 19.3993 181.349 19.3993C182.918 19.3268 184.765 18.6622 186.189 17.5506C187.336 16.6806 188 15.569 188 14.8682C188 13.9862 187.481 13.2612 186.153 13.2612ZM181.591 18.9401C181.446 18.9764 181.385 18.9401 181.385 18.8676C182.496 15.8711 184.379 13.7083 185.984 13.7083C186.431 13.7083 186.721 14.1553 186.721 14.7595C186.708 16.1128 183.715 18.6864 181.591 18.9401Z" fill="black"/>
<path d="M74.1165 36.9194C73.9234 36.9194 73.7544 37.0403 73.6337 37.2699L71.3041 41.7768L68.9384 37.2699C68.8177 37.0282 68.6487 36.9194 68.4435 36.9194C68.2986 36.9194 68.1779 36.9678 68.0934 37.0644C67.9969 37.1611 67.9607 37.2819 67.9607 37.439V43.4925C67.9607 43.6375 67.9969 43.7583 68.0814 43.8429C68.1659 43.9275 68.2745 43.9758 68.4073 43.9758C68.5521 43.9758 68.6607 43.9275 68.7452 43.8429C68.8297 43.7583 68.8659 43.6375 68.8659 43.4925V38.9494L70.8093 42.5863C70.93 42.8159 71.0989 42.9367 71.2921 42.9367C71.4852 42.9367 71.6542 42.8159 71.7749 42.5863L73.7061 38.901V43.4925C73.7061 43.6496 73.7423 43.7583 73.8268 43.8429C73.9113 43.9275 74.02 43.9758 74.1527 43.9758C74.2976 43.9758 74.4062 43.9275 74.4907 43.8429C74.5752 43.7583 74.6114 43.6375 74.6114 43.4925V37.439C74.6114 37.2819 74.5631 37.1611 74.4786 37.0644C74.3821 36.9678 74.2614 36.9194 74.1165 36.9194Z" fill="black"/>
<path d="M77.5807 42.6951C77.3997 42.6951 77.2548 42.7555 77.1341 42.8763C77.0134 42.9971 76.9531 43.1542 76.9531 43.3354C76.9531 43.5167 77.0134 43.6738 77.1341 43.7946C77.2548 43.9154 77.3997 43.9758 77.5807 43.9758C77.7618 43.9758 77.9066 43.9154 78.0273 43.7946C78.148 43.6738 78.2084 43.5288 78.2084 43.3354C78.2084 43.1542 78.148 42.9971 78.0273 42.8763C77.9066 42.7555 77.7618 42.6951 77.5807 42.6951Z" fill="black"/>
<path d="M88.7216 37.5115C88.3112 37.149 87.7439 36.9678 87.0076 36.9678H84.6298C84.4728 36.9678 84.3521 37.0161 84.2556 37.1007C84.1711 37.1852 84.1228 37.3061 84.1228 37.4631V43.4562C84.1228 43.6133 84.1711 43.7342 84.2556 43.8308C84.3521 43.9275 84.4728 43.9637 84.6177 43.9637C84.7867 43.9637 84.9074 43.9154 84.9919 43.8308C85.0764 43.7342 85.1246 43.6133 85.1246 43.4562V41.1363H86.9835C87.7198 41.1363 88.2871 40.9551 88.6975 40.5805C89.1079 40.218 89.3131 39.6985 89.3131 39.046C89.3372 38.3814 89.132 37.874 88.7216 37.5115ZM86.899 40.3147H85.1488V37.7773H86.899C87.8767 37.7773 88.3595 38.2002 88.3595 39.046C88.3595 39.8918 87.8767 40.3147 86.899 40.3147Z" fill="black"/>
<path d="M96.2052 37.3182C95.7224 37.0282 95.143 36.8832 94.4791 36.8832C93.8273 36.8832 93.248 37.0282 92.7652 37.3182C92.2823 37.6082 91.9082 38.019 91.6426 38.5506C91.3771 39.0823 91.2564 39.7227 91.2564 40.4476C91.2564 41.1726 91.3891 41.8009 91.6547 42.3326C91.9202 42.8642 92.2944 43.275 92.7772 43.565C93.26 43.855 93.8273 44 94.4912 44C95.1551 44 95.7344 43.855 96.2172 43.565C96.7 43.275 97.0742 42.8642 97.3398 42.3326C97.5932 41.8009 97.726 41.1726 97.726 40.4476C97.726 39.7227 97.5932 39.0944 97.3398 38.5627C97.0621 38.019 96.688 37.5961 96.2052 37.3182ZM96.1086 42.4655C95.7224 42.9367 95.1792 43.1784 94.4791 43.1784C93.7911 43.1784 93.248 42.9367 92.8738 42.4655C92.4875 41.9942 92.2944 41.3176 92.2944 40.4476C92.2944 39.5777 92.4875 38.901 92.8738 38.4298C93.26 37.9586 93.7911 37.729 94.4791 37.729C95.1792 37.729 95.7224 37.9586 96.1086 38.4298C96.4948 38.901 96.688 39.5777 96.688 40.4476C96.688 41.3176 96.4948 41.9822 96.1086 42.4655Z" fill="black"/>
<path d="M109.169 36.9074C109.072 36.9074 108.976 36.9315 108.903 36.9919C108.819 37.0403 108.77 37.1249 108.722 37.2336L106.875 42.5259L105.065 37.2819C105.017 37.1732 104.956 37.0886 104.872 37.0161C104.787 36.9557 104.691 36.9194 104.582 36.9194C104.473 36.9194 104.377 36.9436 104.292 37.004C104.208 37.0644 104.135 37.149 104.099 37.2578L102.252 42.4534L100.43 37.2094C100.394 37.1007 100.333 37.0282 100.249 36.9678C100.164 36.9194 100.08 36.8832 99.9832 36.8832C99.8505 36.8832 99.7298 36.9195 99.6332 37.004C99.5366 37.0886 99.4883 37.1974 99.4883 37.3303C99.4883 37.4028 99.5004 37.4632 99.5246 37.5236L101.697 43.6254C101.745 43.7342 101.818 43.8188 101.914 43.8792C102.011 43.9396 102.12 43.9637 102.24 43.9637C102.349 43.9637 102.458 43.9396 102.554 43.8792C102.651 43.8188 102.723 43.7342 102.759 43.6254L104.594 38.5385L106.393 43.6254C106.429 43.7342 106.501 43.8188 106.598 43.8792C106.694 43.9396 106.803 43.9637 106.912 43.9637C107.032 43.9637 107.141 43.9396 107.237 43.8792C107.334 43.8188 107.406 43.7342 107.455 43.6254L109.627 37.5236C109.652 37.4632 109.664 37.4028 109.664 37.3303C109.664 37.1974 109.615 37.0886 109.519 37.004C109.398 36.9436 109.289 36.9074 109.169 36.9074Z" fill="black"/>
<path d="M115.916 37.7894C116.073 37.7894 116.182 37.7531 116.266 37.6806C116.351 37.6081 116.387 37.5115 116.387 37.3786C116.387 37.2457 116.351 37.149 116.266 37.0765C116.182 37.004 116.073 36.9678 115.916 36.9678H112.295C112.138 36.9678 112.017 37.0161 111.921 37.1007C111.836 37.1852 111.788 37.3061 111.788 37.4631V43.4321C111.788 43.5892 111.836 43.6979 111.921 43.7946C112.005 43.8791 112.138 43.9275 112.295 43.9275H115.916C116.073 43.9275 116.182 43.8912 116.266 43.8187C116.351 43.7462 116.387 43.6496 116.387 43.5167C116.387 43.2508 116.23 43.1179 115.916 43.1179H112.778V40.8222H115.711C115.868 40.8222 115.976 40.7859 116.061 40.7134C116.145 40.6409 116.182 40.5443 116.182 40.4114C116.182 40.2785 116.145 40.1818 116.061 40.1093C115.976 40.0368 115.868 40.0005 115.711 40.0005H112.778V37.8136H115.916V37.7894Z" fill="black"/>
<path d="M122.941 41.6922C122.808 41.4868 122.675 41.3176 122.543 41.1968C122.41 41.0759 122.253 40.9914 122.084 40.9551C122.651 40.8585 123.098 40.653 123.4 40.3147C123.713 39.9764 123.858 39.5293 123.858 38.9856C123.858 38.3331 123.653 37.8257 123.255 37.4873C122.856 37.149 122.265 36.9799 121.493 36.9799H119.042C118.885 36.9799 118.765 37.0282 118.668 37.1128C118.584 37.1974 118.535 37.3182 118.535 37.4753V43.4684C118.535 43.6254 118.584 43.7463 118.668 43.8429C118.765 43.9396 118.885 43.9758 119.03 43.9758C119.187 43.9758 119.308 43.9275 119.404 43.8429C119.489 43.7463 119.537 43.6254 119.537 43.4684V41.0639H120.648C120.925 41.0639 121.142 41.1122 121.324 41.2089C121.493 41.3055 121.649 41.4747 121.806 41.7043L123.122 43.7583C123.231 43.9275 123.375 44 123.569 44C123.689 44 123.798 43.9637 123.895 43.8792C123.991 43.7946 124.039 43.6979 124.039 43.5771C124.039 43.4804 124.015 43.3838 123.955 43.2992L122.941 41.6922ZM121.372 40.2301H119.525V37.7894H121.372C121.891 37.7894 122.277 37.8861 122.519 38.0794C122.76 38.2727 122.881 38.5869 122.881 38.9977C122.881 39.4206 122.76 39.7347 122.506 39.9281C122.265 40.1335 121.891 40.2301 121.372 40.2301Z" fill="black"/>
</g>
<defs>
<filter id="filter0_d" x="0" y="0" width="192" height="50" filterUnits="userSpaceOnUse" color-interpolation-filters="sRGB">
<feFlood flood-opacity="0" result="BackgroundImageFix"/>
<feColorMatrix in="SourceAlpha" type="matrix" values="0 0 0 0 0 0 0 0 0 0 0 0 0 0 0 0 0 0 127 0"/>
<feOffset dy="2"/>
<feGaussianBlur stdDeviation="2"/>
<feColorMatrix type="matrix" values="0 0 0 0 0 0 0 0 0 0 0 0 0 0 0 0 0 0 0.25 0"/>
<feBlend mode="normal" in2="BackgroundImageFix" result="effect1_dropShadow"/>
<feBlend mode="normal" in="SourceGraphic" in2="effect1_dropShadow" result="shape"/>
</filter>
<clipPath id="clip0">
<rect width="184" height="42" fill="white" transform="translate(4 2)"/>
</clipPath>
</defs>
</svg>
