<svg xmlns="http://www.w3.org/2000/svg" viewBox="0 0 407.59 100.63"><defs><style>.cls-1{fill:#fff;}</style></defs><g id="Layer_2" data-name="Layer 2"><g id="Layer_1-2" data-name="Layer 1"><path class="cls-1" d="M10.12,39q-.19.92-.36,1.62a5.82,5.82,0,0,0-.16,1.3,1.89,1.89,0,0,0,1.62,2,6.42,6.42,0,0,0,1.72.12q.81-.06.81.72a.64.64,0,0,1-.26.51,1,1,0,0,1-.65.21c-.17,0-.74-.07-1.72-.2a35.41,35.41,0,0,0-4.31-.19,31.28,31.28,0,0,0-3.89.19,19.35,19.35,0,0,1-2.14.2q-.78,0-.78-.66t.78-.72a8.29,8.29,0,0,0,1.81-.25A3.44,3.44,0,0,0,4.25,43a4.15,4.15,0,0,0,.87-2l7.4-31.33a6.1,6.1,0,0,0,.16-1c0-.33,0-.59,0-.81a1.36,1.36,0,0,0-.45-1.17,2.64,2.64,0,0,0-1-.45l-1-.26a.6.6,0,0,1-.45-.65c0-.52.37-.78,1.1-.78.26,0,.91,0,1.95.16s2.48.16,4.34.16a13.81,13.81,0,0,0,2-.12,8.28,8.28,0,0,1,1.33-.13c.52,0,.78.21.78.64s-.16.61-.49.65S20,6,19.56,6.1a3.18,3.18,0,0,0-1.37.65,3.68,3.68,0,0,0-1.07,2.07Z"/><path class="cls-1" d="M28,31a53.6,53.6,0,0,1,8.17-11.51Q40,15.7,43.26,15.7a4.09,4.09,0,0,1,2.92,1,3.49,3.49,0,0,1,1,2.66A19,19,0,0,1,46,24.91l-5.06,15a5.13,5.13,0,0,0-.33,1.49c0,.95.33,1.43,1,1.43a2.86,2.86,0,0,0,2-1,20,20,0,0,0,2.3-2.95,23.15,23.15,0,0,0,1.46-2.36c.23-.5.46-.75.68-.75s.39.19.39.58A5.92,5.92,0,0,1,47.71,38a33.38,33.38,0,0,1-2.18,3.47,13.9,13.9,0,0,1-3.43,3.66,5.7,5.7,0,0,1-3.05,1.2c-1.56,0-2.34-1-2.34-3a21.45,21.45,0,0,1,.75-4.57c.5-2.06,1.28-4.64,2.37-7.76l2.66-7.78A11.51,11.51,0,0,0,43,21.34a7.4,7.4,0,0,0,.13-1.17c0-1.38-.62-2.07-1.88-2.07a4.59,4.59,0,0,0-2.4,1.07,22.4,22.4,0,0,0-3.31,3A38.63,38.63,0,0,0,31.85,27a45.78,45.78,0,0,0-3.51,6.32,44.27,44.27,0,0,0-2.07,5.16c-.48,1.49-.87,2.75-1.17,3.79s-.56,1.83-.78,2.37-.52.81-.9.81H20.63a.48.48,0,0,1-.36-.2.6.6,0,0,1-.16-.39,4.3,4.3,0,0,1,.26-1l4.47-15c.61-2.11,1.08-3.89,1.43-5.32a14.8,14.8,0,0,0,.52-3.3c0-.82-.3-1.24-.91-1.24a2.65,2.65,0,0,0-1.82.91,17.9,17.9,0,0,0-1.68,2c-.52.71-1,1.37-1.4,2s-.72.91-.94.91-.45-.2-.45-.59a5.87,5.87,0,0,1,.61-1.36A16.16,16.16,0,0,1,22.31,20q3.77-4.49,6.36-4.48c1.47,0,2.2,1,2.2,3.05,0,.3-.06,1-.19,2a26.82,26.82,0,0,1-.91,4.06Z"/><path class="cls-1" d="M61.62,16.93h4.73c.31,0,.46.13.46.39q0,1.17-.78,1.17H61.29l-3.5,13.16q-1,3.7-1.55,6a15.67,15.67,0,0,0-.59,3.28,1.73,1.73,0,0,0,.29,1,.81.81,0,0,0,.62.39c.61,0,1.64-1.13,3.11-3.38a9.06,9.06,0,0,0,1.14-2.1c.15-.5.38-.75.68-.75s.52.22.52.65q0,1-2.21,4.21a16.6,16.6,0,0,1-3.3,3.83,4.85,4.85,0,0,1-2.73,1.3,1.86,1.86,0,0,1-1.59-.88,4.16,4.16,0,0,1-.61-2.43q0-3.18,2.46-11.87l3.5-12.45h-4a.49.49,0,0,1-.33-.13.43.43,0,0,1-.13-.26q0-1.17.78-1.17H58l1.62-6.1a1.73,1.73,0,0,1,.81-1.17,4.56,4.56,0,0,1,1.78-.25c.87,0,1.3.21,1.3.64a8.69,8.69,0,0,1-.32,1.43Z"/><path class="cls-1" d="M70.44,36A8.63,8.63,0,0,0,72,41.58a5.08,5.08,0,0,0,4.12,1.94q3.5,0,6.81-4a6.52,6.52,0,0,0,1.23-2c.17-.52.46-.78.85-.78s.38.22.38.65A3.75,3.75,0,0,1,84.94,39a16.21,16.21,0,0,1-1.53,2.34q-4.22,5.45-8.75,5.45A6.9,6.9,0,0,1,71.38,46a8.31,8.31,0,0,1-2.66-2.27,11.1,11.1,0,0,1-1.78-3.54,15.15,15.15,0,0,1-.65-4.61,20.1,20.1,0,0,1,1.37-7.16,24.49,24.49,0,0,1,4-6.85A18.36,18.36,0,0,1,76.89,17a10.81,10.81,0,0,1,5.19-1.49,6.48,6.48,0,0,1,4.76,1.82A6.3,6.3,0,0,1,88.67,22q0,4.8-4.54,7.65c-3,1.91-7.53,3.09-13.49,3.57C70.51,34.59,70.44,35.52,70.44,36Zm10.74-7.72a9.48,9.48,0,0,0,3.6-7.52,4.58,4.58,0,0,0-.88-2.92,2.85,2.85,0,0,0-2.37-1.11,5.56,5.56,0,0,0-3,1,11.73,11.73,0,0,0-3,2.88,26.16,26.16,0,0,0-2.69,4.71,35.79,35.79,0,0,0-2.11,6.35Q77.59,31.34,81.18,28.28Z"/><path class="cls-1" d="M97.88,34.08a81.62,81.62,0,0,1,6.65-13.53c2-3,3.86-4.47,5.67-4.47a2.56,2.56,0,0,1,1.92.88,3.33,3.33,0,0,1,.81,2.36,4.31,4.31,0,0,1-.78,2.66,2.2,2.2,0,0,1-1.75,1,1.71,1.71,0,0,1-1.27-.49,1.88,1.88,0,0,1-.49-1.39,1.78,1.78,0,0,0-.32-1.13.91.91,0,0,0-.71-.42q-1.11,0-4.06,5.05a111.74,111.74,0,0,0-6.9,15.27c-.48,1.25-.84,2.25-1.07,3a14,14,0,0,1-.65,1.68,1.54,1.54,0,0,1-.68.75,3.46,3.46,0,0,1-1.24.16c-1,0-1.55-.26-1.55-.78a5.57,5.57,0,0,1,.19-.84l4.8-18.25c.3-1.16.54-2.17.71-3a10.89,10.89,0,0,0,.26-2.2c0-.82-.32-1.23-1-1.23a2.42,2.42,0,0,0-1.69.91,19.67,19.67,0,0,0-1.59,2L91.81,24q-.61.87-.87.87c-.31,0-.46-.21-.46-.65a5.09,5.09,0,0,1,.65-1.42,19.44,19.44,0,0,1,2.14-2.92c2.34-2.77,4.3-4.15,5.9-4.15a1.9,1.9,0,0,1,1.56.74,3.58,3.58,0,0,1,.59,2.23c0,.35-.07,1.06-.2,2.14a30.47,30.47,0,0,1-.78,3.88Z"/><path class="cls-1" d="M121.94,31a53.6,53.6,0,0,1,8.17-11.51q3.82-3.79,7.07-3.79a4.09,4.09,0,0,1,2.92,1,3.49,3.49,0,0,1,1,2.66,19,19,0,0,1-1.23,5.58l-5.06,15a5.13,5.13,0,0,0-.33,1.49c0,.95.33,1.43,1,1.43a2.86,2.86,0,0,0,2-1,20,20,0,0,0,2.3-2.95,23.15,23.15,0,0,0,1.46-2.36c.23-.5.46-.75.68-.75s.39.19.39.58a5.92,5.92,0,0,1-.68,1.66,33.38,33.38,0,0,1-2.18,3.47A13.9,13.9,0,0,1,136,45.11a5.7,5.7,0,0,1-3.05,1.2c-1.56,0-2.34-1-2.34-3a21.45,21.45,0,0,1,.75-4.57c.5-2.06,1.28-4.64,2.37-7.76l2.66-7.78a11.51,11.51,0,0,0,.51-1.88,7.4,7.4,0,0,0,.13-1.17c0-1.38-.62-2.07-1.88-2.07a4.59,4.59,0,0,0-2.4,1.07,22.4,22.4,0,0,0-3.31,3,38.63,38.63,0,0,0-3.69,4.8,45.78,45.78,0,0,0-3.51,6.32,44.27,44.27,0,0,0-2.07,5.16c-.48,1.49-.87,2.75-1.17,3.79s-.56,1.83-.78,2.37-.52.81-.91.81h-2.78a.48.48,0,0,1-.36-.2.6.6,0,0,1-.16-.39,4.3,4.3,0,0,1,.26-1l4.47-15c.61-2.11,1.08-3.89,1.43-5.32a14.8,14.8,0,0,0,.52-3.3c0-.82-.3-1.24-.91-1.24a2.65,2.65,0,0,0-1.82.91,17.9,17.9,0,0,0-1.68,2c-.52.71-1,1.37-1.4,2s-.72.91-.94.91-.45-.2-.45-.59a5.87,5.87,0,0,1,.61-1.36A16.16,16.16,0,0,1,116.23,20q3.76-4.49,6.36-4.48c1.47,0,2.2,1,2.2,3.05,0,.3-.06,1-.19,2a26.82,26.82,0,0,1-.91,4.06Z"/><path class="cls-1" d="M167,37.36a17.4,17.4,0,0,0-.52,2.21,8.71,8.71,0,0,0-.13,1.1c0,.91.23,1.36.71,1.36.73,0,1.75-.91,3-2.72a9.59,9.59,0,0,0,1.1-1.82c.17-.43.43-.65.78-.65s.32.15.32.46q0,1.35-2.07,4.28-3.57,5.19-6.29,5.19c-1.39,0-2.08-.93-2.08-2.79a14,14,0,0,1,.42-3.34c.28-1.15.6-2.35.94-3.6l1.95-7.2a83.14,83.14,0,0,1-8.56,12.58q-3.71,4.21-6.94,4.22a4.63,4.63,0,0,1-3.83-1.82,8.35,8.35,0,0,1-1.43-5.25A19.86,19.86,0,0,1,146,32a34.43,34.43,0,0,1,5.09-8.31,24.42,24.42,0,0,1,6.65-6.06,12.33,12.33,0,0,1,6-2,5.26,5.26,0,0,1,2.82.68,3.48,3.48,0,0,0,1.52.68.62.62,0,0,0,.49-.29c.15-.19.33-.41.55-.65a3.82,3.82,0,0,1,.81-.64,2.27,2.27,0,0,1,1.2-.3,3,3,0,0,1,1.23.17c.22.1.33.4.33.87a5.11,5.11,0,0,1-.33,1.43Zm-8.08-18A27.45,27.45,0,0,0,153,26.85,42.28,42.28,0,0,0,149.64,34a17.19,17.19,0,0,0-1.11,5.42,4.2,4.2,0,0,0,.85,2.85,2.69,2.69,0,0,0,2.14,1q1.81,0,4-2.17a46.71,46.71,0,0,0,5.09-6.45q6.81-10,6.81-13.75a4.13,4.13,0,0,0-1-2.92,3.57,3.57,0,0,0-2.73-1Q161.84,16.93,158.88,19.36Z"/><path class="cls-1" d="M180.25,39a14.83,14.83,0,0,0-.35,1.62,6.64,6.64,0,0,0-.1,1c0,.82.32,1.23,1,1.23q1.42,0,4.22-4.8c.39-.65.66-1.12.81-1.43s.31-.45.48-.45.39.15.39.45a4.87,4.87,0,0,1-.74,1.92c-.5.88-1.22,2-2.18,3.47a11.8,11.8,0,0,1-3,3.24,5.31,5.31,0,0,1-2.79,1.1c-1.52,0-2.27-1-2.27-2.85a32.61,32.61,0,0,1,1.36-8L184.92,7a10.26,10.26,0,0,0,.46-2.52,1.06,1.06,0,0,0-.39-.85,1.73,1.73,0,0,0-1.11-.32,2.34,2.34,0,0,0-.38,0,2.56,2.56,0,0,1-.39,0c-.7,0-1-.21-1-.65a.58.58,0,0,1,.26-.55,2,2,0,0,1,.78-.22,12.41,12.41,0,0,1,1.26-.1A10,10,0,0,0,186,1.62a6.13,6.13,0,0,0,2.65-1A2.59,2.59,0,0,1,190.11,0c.22,0,.33.19.33.58a3.75,3.75,0,0,1-.2.65Z"/><path class="cls-1" d="M212.23,11.21a12.29,12.29,0,0,0,.32-2.91,1.92,1.92,0,0,0-.45-1.49,2.13,2.13,0,0,0-1-.49l-1-.16c-.3,0-.45-.26-.45-.65,0-.56.37-.84,1.1-.84a10,10,0,0,1,1.4.16,18,18,0,0,0,2.75.16h.78q1.5,0,3.63-.09c1.43-.07,3.05-.1,4.87-.1q7.26,0,11,4.21t3.7,12a25.67,25.67,0,0,1-1.92,9.81,25.29,25.29,0,0,1-5.41,8.26A20.17,20.17,0,0,1,224.36,44a23,23,0,0,1-8.5,1.49c-1.21,0-2.43,0-3.66-.1s-2.5-.1-3.8-.1a43.76,43.76,0,0,0-5,.23c-1.23.15-2,.23-2.36.23a2.43,2.43,0,0,1-.88-.13c-.19-.09-.29-.3-.29-.65a.75.75,0,0,1,.19-.61,1.88,1.88,0,0,1,.65-.3l1.11-.29a7.41,7.41,0,0,0,1.55-.61,3.35,3.35,0,0,0,1.75-1.88c.26-.78.54-1.77.85-3Zm-2.5,28.54a4.84,4.84,0,0,0-.1.87,5.33,5.33,0,0,0,.26,1.84,1.88,1.88,0,0,0,.85,1,3.46,3.46,0,0,0,1.49.39c.6,0,1.32.06,2.14.06h.78a17.38,17.38,0,0,0,7.2-1.51A16.8,16.8,0,0,0,228.18,38a17.75,17.75,0,0,0,2.34-3.58,37.88,37.88,0,0,0,2-4.71,37.49,37.49,0,0,0,1.39-5.33,28.65,28.65,0,0,0,.52-5.35,17.08,17.08,0,0,0-1.1-6.36,10.28,10.28,0,0,0-2.92-4.22,8,8,0,0,0-4-1.81,34.21,34.21,0,0,0-5.12-.32,5.84,5.84,0,0,0-2.92.55A3.67,3.67,0,0,0,217,9.33L210,38.62C209.87,39.05,209.8,39.43,209.73,39.75Z"/><path class="cls-1" d="M246,39.31a11.87,11.87,0,0,0-.59,2.53c0,.91.31,1.36.91,1.36q1.62,0,3.5-3.31a26.93,26.93,0,0,0,1.4-2.56c.24-.54.44-.81.61-.81a.4.4,0,0,1,.46.45c0,.74-.87,2.42-2.6,5.06a13.62,13.62,0,0,1-3,3.41,4.73,4.73,0,0,1-2.79,1.13c-1.73,0-2.59-1.08-2.59-3.24a15.61,15.61,0,0,1,.71-4.19c.48-1.66,1.12-3.66,1.95-6l2.66-7.78c.39-1.17.71-2.17,1-3a7.62,7.62,0,0,0,.39-2.18,2.65,2.65,0,0,0-.16-1c-.11-.21-.36-.32-.75-.32a2.22,2.22,0,0,0-1.56.81A14.18,14.18,0,0,0,244,21.44l-1.23,1.81q-.56.81-.81.81c-.22,0-.32-.19-.32-.58a4,4,0,0,1,.52-1.23,17.52,17.52,0,0,1,1.68-2.47c2.21-2.76,4.15-4.15,5.84-4.15a2.24,2.24,0,0,1,1.75.72,2.87,2.87,0,0,1,.65,2,11.24,11.24,0,0,1-.45,3q-.46,1.62-1.11,3.57Zm5.48-33.7a2.61,2.61,0,0,1,2.11-1.33,1.67,1.67,0,0,1,1.36.65,2.64,2.64,0,0,1,.52,1.69,5.76,5.76,0,0,1-.91,3.24,2.54,2.54,0,0,1-2.08,1.36,1.67,1.67,0,0,1-1.42-.71,3.36,3.36,0,0,1-.52-2A4.89,4.89,0,0,1,251.44,5.61Z"/><path class="cls-1" d="M278.19,37.36a19.34,19.34,0,0,0-.52,2.21c-.08.56-.13.93-.13,1.1,0,.91.24,1.36.72,1.36.73,0,1.75-.91,3.05-2.72a9.59,9.59,0,0,0,1.1-1.82c.17-.43.43-.65.78-.65s.32.15.32.46q0,1.35-2.07,4.28-3.57,5.19-6.3,5.19-2.07,0-2.07-2.79a14,14,0,0,1,.42-3.34c.28-1.15.59-2.35.94-3.6l1.95-7.2a83.89,83.89,0,0,1-8.56,12.58q-3.7,4.21-6.94,4.22a4.61,4.61,0,0,1-3.83-1.82,8.35,8.35,0,0,1-1.43-5.25A19.86,19.86,0,0,1,257.28,32a34.12,34.12,0,0,1,5.09-8.31A24.42,24.42,0,0,1,269,17.61a12.33,12.33,0,0,1,6-2,5.26,5.26,0,0,1,2.82.68,3.48,3.48,0,0,0,1.52.68.62.62,0,0,0,.49-.29c.15-.19.33-.41.55-.65a3.58,3.58,0,0,1,.81-.64,2.23,2.23,0,0,1,1.2-.3,3.07,3.07,0,0,1,1.23.17c.22.1.33.4.33.87a5.11,5.11,0,0,1-.33,1.43Zm-8.07-18a27.26,27.26,0,0,0-5.87,7.49A41.52,41.52,0,0,0,260.88,34a17.19,17.19,0,0,0-1.11,5.42,4.2,4.2,0,0,0,.85,2.85,2.69,2.69,0,0,0,2.14,1q1.82,0,4-2.17a47.48,47.48,0,0,0,5.09-6.45q6.81-10,6.81-13.75a4.09,4.09,0,0,0-1-2.92,3.53,3.53,0,0,0-2.72-1C273.7,16.93,272.08,17.74,270.12,19.36Z"/><path class="cls-1" d="M291.49,39q-.25,1-.36,1.62a7.92,7.92,0,0,0-.09,1c0,.82.32,1.23,1,1.23q1.42,0,4.22-4.8c.38-.65.65-1.12.81-1.43s.31-.45.48-.45.39.15.39.45a4.87,4.87,0,0,1-.74,1.92c-.5.88-1.23,2-2.18,3.47a11.82,11.82,0,0,1-3.05,3.24,5.28,5.28,0,0,1-2.78,1.1q-2.28,0-2.28-2.85a32.72,32.72,0,0,1,1.37-8L296.16,7a10.15,10.15,0,0,0,.45-2.52,1,1,0,0,0-.38-.85,1.73,1.73,0,0,0-1.11-.32,2.56,2.56,0,0,0-.39,0,2.56,2.56,0,0,1-.39,0c-.69,0-1-.21-1-.65a.58.58,0,0,1,.26-.55,2,2,0,0,1,.77-.22c.35-.05.77-.08,1.27-.1a9.72,9.72,0,0,0,1.65-.23,6.18,6.18,0,0,0,2.66-1A2.56,2.56,0,0,1,301.35,0c.22,0,.32.19.32.58a3,3,0,0,1-.19.65Z"/><path class="cls-1" d="M320.29,16.64a8.84,8.84,0,0,1,3.16,2.53,12.8,12.8,0,0,1,2.1,4,16.75,16.75,0,0,1,.77,5.25,18.38,18.38,0,0,1-1.35,7,21.05,21.05,0,0,1-3.52,5.8,16.56,16.56,0,0,1-4.9,3.92,11.66,11.66,0,0,1-5.46,1.43,8.81,8.81,0,0,1-3.87-.87,9.29,9.29,0,0,1-3.13-2.5,12.47,12.47,0,0,1-2.1-3.93,16,16,0,0,1-.77-5.09,19.81,19.81,0,0,1,1.35-7.36A19.41,19.41,0,0,1,306.12,21,17.42,17.42,0,0,1,311,17.16a11.4,11.4,0,0,1,5.32-1.4A9,9,0,0,1,320.29,16.64Zm.64,2.76a4.9,4.9,0,0,0-4.23-2.08,7.3,7.3,0,0,0-4,1.4A12.61,12.61,0,0,0,309,22.86a27.88,27.88,0,0,0-2.86,6.64,24.72,24.72,0,0,0-1,6.72,11.22,11.22,0,0,0,1.6,6.51A5,5,0,0,0,311,45,6.8,6.8,0,0,0,315,43.48a14.83,14.83,0,0,0,3.68-4.17,25.71,25.71,0,0,0,2.67-6.19,27,27,0,0,0,1-7.59A10.46,10.46,0,0,0,320.93,19.4Z"/><path class="cls-1" d="M352.46,16.73a3,3,0,0,1,1.07.17c.28.1.42.44.42,1a1.33,1.33,0,0,1-.39,1,1.27,1.27,0,0,1-.9.38h-4.3a16.64,16.64,0,0,1,1.6,3.09,8.75,8.75,0,0,1,.55,3.14,10.43,10.43,0,0,1-1,4.48,13.66,13.66,0,0,1-2.46,3.63,11.42,11.42,0,0,1-3.41,2.46,9.1,9.1,0,0,1-4,.91,6.54,6.54,0,0,1-2.24-.35,10.21,10.21,0,0,1-1.62-.78c-.45-.28-.84-.54-1.16-.78a1.52,1.52,0,0,0-.75-.36,1.49,1.49,0,0,0-1.07.68,2.72,2.72,0,0,0,.39,3.7,10.43,10.43,0,0,0,2.82,1.59l5.12,2.14a16.57,16.57,0,0,1,5.55,3.47,6.93,6.93,0,0,1,1.85,5,8,8,0,0,1-.88,3.76A8.77,8.77,0,0,1,345.23,58a11.69,11.69,0,0,1-3.89,1.91,18.24,18.24,0,0,1-5.22.68A17.61,17.61,0,0,1,331,59.9a12.09,12.09,0,0,1-3.83-1.85,8.09,8.09,0,0,1-2.36-2.75,7.42,7.42,0,0,1-.81-3.41,6.09,6.09,0,0,1,2.3-5,19.15,19.15,0,0,1,7.17-3.18c-2.38-.87-3.57-2.4-3.57-4.61a5.08,5.08,0,0,1,.42-2.14,8.21,8.21,0,0,1,1-1.59l1-1.2a1.64,1.64,0,0,0,.42-1,2,2,0,0,0-.33-.94c-.21-.36-.46-.82-.74-1.36a10.93,10.93,0,0,1-.75-1.94,9.52,9.52,0,0,1-.32-2.63,11,11,0,0,1,.81-4.15,12.33,12.33,0,0,1,2.22-3.57,11,11,0,0,1,3.33-2.5,9.31,9.31,0,0,1,4.08-.94,6.72,6.72,0,0,1,2,.26c.55.18,1.07.36,1.57.55s1,.38,1.54.56a5.89,5.89,0,0,0,1.82.25Zm-17.84,27.9a8,8,0,0,0-2.23.51,11.58,11.58,0,0,0-2.83,1.43,5.64,5.64,0,0,0-1.78,2.14,6.63,6.63,0,0,0-.68,3,6.8,6.8,0,0,0,2.66,5.48A11.18,11.18,0,0,0,337,59.35a9.34,9.34,0,0,0,6.13-1.85,5.9,5.9,0,0,0,2.24-4.77A5.23,5.23,0,0,0,342,47.48l-6-2.6A3.17,3.17,0,0,0,334.62,44.63Zm4.19-27.15a8.71,8.71,0,0,0-2.4,2.71,15.46,15.46,0,0,0-1.59,4,19.3,19.3,0,0,0-.59,4.85,7.18,7.18,0,0,0,1.4,4.75,4.35,4.35,0,0,0,3.47,1.65A4.66,4.66,0,0,0,342,34.35a10,10,0,0,0,2.4-2.81,15.37,15.37,0,0,0,1.62-4,19.19,19.19,0,0,0,.58-4.75,7.06,7.06,0,0,0-1.36-4.63,4.29,4.29,0,0,0-3.44-1.64A5,5,0,0,0,338.81,17.48Z"/><path class="cls-1" d="M359.46,38.92a13.14,13.14,0,0,0-.71,3c0,1.38.62,2.07,1.87,2.07A4.67,4.67,0,0,0,363,43a20.52,20.52,0,0,0,3.28-3,41.54,41.54,0,0,0,3.63-4.8,51.14,51.14,0,0,0,3.54-6.32q1.35-3,2.13-5.29c.52-1.53.93-2.82,1.23-3.86s.56-1.82.78-2.36.52-.81.91-.81H381a.76.76,0,0,1,.49.19.53.53,0,0,1,.22.39,3.57,3.57,0,0,1-.13.65l-4.67,15.56Q375,39.71,375,41.77c0,.91.3,1.36.91,1.36a2.57,2.57,0,0,0,1.84-.9,18.9,18.9,0,0,0,1.66-2c.52-.72,1-1.37,1.39-2s.75-.91,1-.91c.08,0,.17.07.26.2a.85.85,0,0,1,.13.45,6,6,0,0,1-.65,1.36,19.16,19.16,0,0,1-2.08,2.86q-3.69,4.41-6.23,4.41c-1.42,0-2.13-1-2.13-3a17.71,17.71,0,0,1,.22-2.21,35.6,35.6,0,0,1,.88-4l1.68-6.3a53.11,53.11,0,0,1-8.17,11.52q-3.82,3.8-7.07,3.79a4,4,0,0,1-2.92-1,3.5,3.5,0,0,1-1-2.63,19,19,0,0,1,1.23-5.58l5.06-15a5.33,5.33,0,0,0,.32-1.42c0-1-.3-1.43-.91-1.43a2.66,2.66,0,0,0-1.85.84A11.43,11.43,0,0,0,357,22c-.46.67-.86,1.29-1.2,1.85s-.63.84-.85.84-.45-.17-.45-.52q0-.9,2-3.69c2.34-3.16,4.45-4.74,6.36-4.74a2.11,2.11,0,0,1,1.72.75,3.22,3.22,0,0,1,.61,2.11q0,3.63-3.05,12.51Z"/><path class="cls-1" d="M389.37,36A8.63,8.63,0,0,0,391,41.58a5.08,5.08,0,0,0,4.12,1.94q3.5,0,6.81-4a6.52,6.52,0,0,0,1.23-2q.25-.78.84-.78c.26,0,.39.22.39.65a3.65,3.65,0,0,1-.49,1.49,15.23,15.23,0,0,1-1.52,2.34q-4.21,5.45-8.76,5.45a6.86,6.86,0,0,1-3.27-.81,8.21,8.21,0,0,1-2.66-2.27,11.1,11.1,0,0,1-1.78-3.54,15.15,15.15,0,0,1-.65-4.61,19.89,19.89,0,0,1,1.37-7.16,24.49,24.49,0,0,1,4-6.85A18.1,18.1,0,0,1,395.82,17,10.78,10.78,0,0,1,401,15.5a6.48,6.48,0,0,1,4.77,1.82A6.29,6.29,0,0,1,407.59,22q0,4.8-4.54,7.65c-3,1.91-7.52,3.09-13.49,3.57C389.43,34.59,389.37,35.52,389.37,36Zm10.73-7.72a9.48,9.48,0,0,0,3.6-7.52,4.57,4.57,0,0,0-.87-2.92,2.88,2.88,0,0,0-2.37-1.11,5.59,5.59,0,0,0-3,1,11.7,11.7,0,0,0-2.95,2.88,25.57,25.57,0,0,0-2.69,4.71,35,35,0,0,0-2.11,6.35Q396.5,31.34,400.1,28.28Z"/><path class="cls-1" d="M113,67.53h-3.8V66.29H118v1.24h-3.79v9.73H113Z"/><path class="cls-1" d="M119.94,66.29h1.26V71h6.1V66.29h1.25v11H127.3v-5h-6.1v5h-1.26Z"/><path class="cls-1" d="M131.26,66.29h7.65v1.24h-6.39V71h5.91v1.24h-5.91V76H139v1.26h-7.78Z"/><path class="cls-1" d="M146.71,66.29h4.45c2.24,0,3.52,1.4,3.52,3.1a3.2,3.2,0,0,1-3.52,3.14H148v4.73h-1.27Zm4.44,5c1.33,0,2.23-.73,2.23-1.9s-.86-1.86-2.23-1.86H148v3.76Z"/><path class="cls-1" d="M156.94,66.29h4.55A3.2,3.2,0,0,1,165,69.44a2.85,2.85,0,0,1-1.88,2.74c1.4.82.92,2.69,2.16,5.08h-1.43c-.73-1.1-.63-4.73-2.5-4.73H158.2v4.73h-1.26Zm4.52,5a2,2,0,0,0,2.26-1.91c0-1.08-.84-1.85-2.26-1.85H158.2v3.76Z"/><path class="cls-1" d="M167.93,66.29h1.28v11h-1.28Z"/><path class="cls-1" d="M171.38,66.29h1.37l3.3,9.29,3.28-9.29h1.38l-4,11h-1.38Z"/><path class="cls-1" d="M186.12,66.29h1.49l4.26,11h-1.35l-1.24-3.2h-4.85l-1.23,3.2h-1.37Zm2.67,6.55-1.91-5-2,5Z"/><path class="cls-1" d="M196.8,67.53H193V66.29h8.84v1.24h-3.79v9.73H196.8Z"/><path class="cls-1" d="M203.79,66.29h7.64v1.24H205V71H211v1.24H205V76h6.52v1.26h-7.77Z"/><path class="cls-1" d="M219.23,66.29h4.45c2.24,0,3.52,1.4,3.52,3.1a3.2,3.2,0,0,1-3.52,3.14H220.5v4.73h-1.27Zm4.44,5c1.33,0,2.23-.73,2.23-1.9s-.86-1.86-2.23-1.86H220.5v3.76Z"/><path class="cls-1" d="M229.46,66.29H234a3.2,3.2,0,0,1,3.52,3.15,2.85,2.85,0,0,1-1.88,2.74c1.4.82.92,2.69,2.15,5.08h-1.42c-.73-1.1-.63-4.73-2.5-4.73h-3.16v4.73h-1.26Zm4.52,5a2,2,0,0,0,2.26-1.91c0-1.08-.84-1.85-2.26-1.85h-3.26v3.76Z"/><path class="cls-1" d="M243.7,66.29h1.49l4.26,11H248.1l-1.23-3.2H242l-1.23,3.2h-1.37Zm2.67,6.55-1.91-5-2,5Z"/><path class="cls-1" d="M251,71.92A5.6,5.6,0,0,1,256.57,66a5.07,5.07,0,0,1,4.81,3.13l-1.33.28a3.8,3.8,0,0,0-3.51-2.13,4.23,4.23,0,0,0-4.19,4.55c0,2.6,1.68,4.41,4,4.41a4,4,0,0,0,3.79-2.63l1.26.28a5.15,5.15,0,0,1-5,3.62A5.29,5.29,0,0,1,251,71.92Z"/><path class="cls-1" d="M266.9,67.53h-3.8V66.29h8.84v1.24h-3.79v9.73H266.9Z"/><path class="cls-1" d="M274.1,66.29h1.29v11H274.1Z"/><path class="cls-1" d="M278,71.92A5.59,5.59,0,0,1,283.54,66a5.06,5.06,0,0,1,4.81,3.13l-1.32.28a3.81,3.81,0,0,0-3.52-2.13,4.22,4.22,0,0,0-4.18,4.55c0,2.6,1.67,4.41,4,4.41a4,4,0,0,0,3.79-2.63l1.25.28a5.13,5.13,0,0,1-5,3.62A5.29,5.29,0,0,1,278,71.92Z"/><path class="cls-1" d="M290.85,66.29h7.64v1.24h-6.38V71H298v1.24h-5.9V76h6.52v1.26h-7.78Z"/><path class="cls-1" d="M150,94.91c0-3.25,2.13-5.79,5.39-5.79s5.36,2.55,5.36,5.79-2.22,5.72-5.36,5.72A5.37,5.37,0,0,1,150,94.91Zm9.4,0c0-2.56-1.56-4.52-4-4.52s-4,2-4,4.52,1.7,4.5,4,4.5S159.43,97.55,159.43,94.89Z"/><path class="cls-1" d="M163.11,89.38h7.56v1.24h-6.3v3.47H170v1.24h-5.6v5h-1.26Z"/><path class="cls-1" d="M178.05,89.38h1.63l3.65,9.17,3.59-9.17h1.63v11H187.3V91.7l-3.38,8.65h-1.17l-3.44-8.65v8.65h-1.26Z"/><path class="cls-1" d="M191.76,99.56a1,1,0,1,1,1,1A1,1,0,0,1,191.76,99.56Z"/><path class="cls-1" d="M202.14,89.38h4.45c2.23,0,3.51,1.4,3.51,3.11a3.19,3.19,0,0,1-3.51,3.13h-3.18v4.73h-1.27Zm4.43,5c1.33,0,2.23-.73,2.23-1.89s-.86-1.87-2.23-1.87h-3.16v3.76Z"/><path class="cls-1" d="M212,94.91c0-3.25,2.13-5.79,5.4-5.79s5.35,2.55,5.35,5.79-2.22,5.72-5.35,5.72A5.38,5.38,0,0,1,212,94.91Zm9.41,0c0-2.56-1.56-4.52-4-4.52s-4,2-4,4.52,1.71,4.5,4,4.5S221.41,97.55,221.41,94.89Z"/><path class="cls-1" d="M224.31,89.38h1.33l2.25,9,2.52-9h1.2l2.55,8.91,2.22-8.91h1.31l-2.92,11h-1.25L231,91.55l-2.54,8.8h-1.27Z"/><path class="cls-1" d="M239.63,89.38h7.64v1.24h-6.39v3.47h5.91v1.24h-5.91v3.76h6.53v1.26h-7.78Z"/><path class="cls-1" d="M249.83,89.38h4.55a3.19,3.19,0,0,1,3.51,3.15A2.84,2.84,0,0,1,256,95.27c1.4.82.92,2.69,2.16,5.08h-1.43c-.73-1.1-.63-4.73-2.49-4.73h-3.17v4.73h-1.25Zm4.52,5a2,2,0,0,0,2.26-1.91c0-1.08-.85-1.85-2.26-1.85h-3.27v3.76Z"/></g></g></svg>