<svg width="168" height="168" viewBox="0 0 168 168" fill="none" xmlns="http://www.w3.org/2000/svg">
<g clip-path="url(#clip0)">
<path d="M161.395 51.3023C153.286 32.0437 138.311 16.4853 119.376 7.64733C100.441 -1.19059 78.8975 -2.67739 58.928 3.47557C38.9584 9.62854 21.9876 22.9823 11.3101 40.9443C0.632693 58.9063 -2.98953 80.1951 1.14668 100.678C5.28289 121.16 16.8824 139.375 33.6934 151.786C50.5043 164.197 71.3272 169.919 92.1196 167.84C112.912 165.762 132.19 156.032 146.212 140.539C160.233 125.045 167.998 104.895 167.998 83.9989C168.013 72.7674 165.768 61.6477 161.395 51.3023ZM160.346 116.249C152.35 135.251 137.579 150.605 118.899 159.329C100.22 168.053 78.9647 169.525 59.261 163.459C39.5573 157.392 22.8107 144.221 12.2726 126.501C1.73437 108.782 -1.84348 87.7785 2.23362 67.5693C6.31071 47.36 17.7519 29.3868 34.3358 17.1389C50.9197 4.89106 71.4631 -0.757464 91.9776 1.28998C112.492 3.33742 131.514 12.9347 145.35 28.2186C159.186 43.5026 166.849 63.3825 166.852 83.9989C166.868 95.0763 164.655 106.044 160.346 116.249Z" fill="white"/>
<path d="M26.1317 76.542C26.2161 76.4763 26.286 76.3939 26.3372 76.3001C26.3885 76.2062 26.42 76.1028 26.4298 75.9964C26.4521 75.8877 26.4514 75.7756 26.428 75.6672C26.4045 75.5587 26.3586 75.4564 26.2933 75.3667C26.2238 75.283 26.1383 75.214 26.0416 75.1639C25.945 75.1138 25.8394 75.0836 25.7309 75.075L16.2256 73.7675C16.1183 73.7443 16.0073 73.7446 15.9002 73.7683C15.793 73.7921 15.6923 73.8388 15.605 73.9052C15.5176 73.9716 15.4457 74.0562 15.3941 74.1531C15.3426 74.2499 15.3126 74.3568 15.3063 74.4664C15.287 74.5721 15.2901 74.6807 15.3154 74.7852C15.3407 74.8897 15.3876 74.9877 15.4532 75.0729C15.5209 75.1566 15.6046 75.226 15.6993 75.2772C15.7941 75.3284 15.898 75.3602 16.0052 75.3709L25.5105 76.6764C25.6177 76.6977 25.7282 76.6969 25.8351 76.6738C25.942 76.6506 26.0429 76.6058 26.1317 76.542Z" fill="white"/>
<path d="M16.9727 68.9592L26.1758 71.6687C26.3815 71.7402 26.6067 71.7305 26.8054 71.6414C26.9848 71.5386 27.117 71.3701 27.1742 71.1715C27.2314 70.9729 27.209 70.7598 27.1119 70.5774C26.9976 70.3928 26.8163 70.2597 26.6061 70.2059L19.3086 68.0567L28.8349 64.4448C28.9517 64.4065 29.0568 64.3393 29.1405 64.2494C29.2242 64.1594 29.2837 64.0497 29.3135 63.9306C29.3463 63.8309 29.3581 63.7255 29.3479 63.6211C29.3378 63.5167 29.3061 63.4155 29.2547 63.324C29.2002 63.2306 29.1276 63.1491 29.0411 63.0842C28.9545 63.0193 28.8559 62.9724 28.751 62.9462L19.5395 60.2346C19.3327 60.1649 19.1069 60.1784 18.9099 60.2724C18.8174 60.3195 18.736 60.3858 18.6712 60.4669C18.6064 60.5479 18.5597 60.6419 18.5342 60.7425C18.5008 60.8398 18.4891 60.9432 18.5 61.0454C18.5108 61.1477 18.544 61.2463 18.5972 61.3344C18.7144 61.5184 18.8977 61.6506 19.1093 61.7038L26.4298 63.8571L16.8888 67.4607C16.772 67.4989 16.6669 67.5662 16.5832 67.6561C16.4995 67.746 16.44 67.8557 16.4103 67.9749C16.3774 68.0745 16.3657 68.1799 16.3758 68.2844C16.3859 68.3888 16.4176 68.49 16.469 68.5814C16.5235 68.6748 16.5962 68.7564 16.6827 68.8213C16.7692 68.8861 16.8678 68.933 16.9727 68.9592Z" fill="white"/>
<path d="M20.8953 56.6667C21.2941 56.8724 21.6089 56.7528 21.8398 56.3078L23.2963 53.5186L31.2716 57.649C31.417 57.7185 31.5794 57.7447 31.7393 57.7245C31.8992 57.7043 32.0499 57.6384 32.1734 57.5349C32.2969 57.4313 32.388 57.2944 32.4357 57.1404C32.4835 56.9865 32.4859 56.822 32.4427 56.6667C32.4074 56.5647 32.352 56.4708 32.28 56.3905C32.2079 56.3101 32.1205 56.2449 32.023 56.1987L24.0477 52.0683L25.4937 49.2791C25.7246 48.8341 25.6406 48.5067 25.2398 48.301C25.1603 48.2526 25.0711 48.2224 24.9785 48.2126C24.886 48.2028 24.7924 48.2137 24.7046 48.2444C24.5168 48.3265 24.3669 48.4764 24.2848 48.6641L20.6414 55.6761C20.5373 55.8486 20.5007 56.0534 20.5385 56.2512C20.5637 56.3425 20.6087 56.4271 20.6704 56.4989C20.7321 56.5707 20.8089 56.628 20.8953 56.6667Z" fill="white"/>
<path d="M27.4162 45.2557L34.9864 51C35.0666 51.0677 35.1596 51.1184 35.2599 51.1491C35.3602 51.1798 35.4656 51.1898 35.5699 51.1784C35.676 51.1599 35.7772 51.12 35.8673 51.0612C35.9575 51.0024 36.0348 50.9259 36.0946 50.8363L39.5869 46.2316C39.7185 46.0798 39.7895 45.8848 39.7863 45.6839C39.7767 45.5937 39.7477 45.5068 39.7013 45.4289C39.6549 45.351 39.5923 45.2841 39.5177 45.2326C39.1756 44.9745 38.8524 45.0437 38.5481 45.4425L35.53 49.4302L32.6169 47.2181L35.444 43.4906C35.5794 43.3404 35.6542 43.1452 35.6539 42.9429C35.6253 42.7635 35.5286 42.602 35.3839 42.4921C35.2393 42.3823 35.0578 42.3325 34.8773 42.3531C34.6831 42.405 34.5145 42.5259 34.403 42.6931L31.5655 46.4121L28.7867 44.3134L31.8047 40.3257C31.9373 40.1754 32.0118 39.9826 32.0146 39.7821C32.0075 39.6929 31.9802 39.6065 31.9347 39.5294C31.8893 39.4523 31.8269 39.3866 31.7522 39.3372C31.6826 39.2788 31.6011 39.2362 31.5135 39.2123C31.4258 39.1884 31.334 39.1837 31.2443 39.1987C31.0507 39.2516 30.8824 39.3723 30.77 39.5387L27.284 44.1434C27.214 44.2249 27.1611 44.3197 27.1287 44.4221C27.0962 44.5245 27.0848 44.6325 27.0951 44.7394C27.1111 44.8426 27.1478 44.9416 27.203 45.0303C27.2582 45.119 27.3307 45.1957 27.4162 45.2557Z" fill="white"/>
<path d="M41.1799 43.2766C41.2492 43.3609 41.335 43.4302 41.4321 43.48C41.5293 43.5298 41.6356 43.5592 41.7445 43.5662C41.9597 43.5624 42.1661 43.48 42.3249 43.3347C42.4838 43.1894 42.5841 42.9911 42.6071 42.7771C42.6062 42.6683 42.5839 42.5608 42.5414 42.4607C42.4989 42.3606 42.437 42.2698 42.3594 42.1936L39.7737 39.3687L41.0813 38.1703C41.3442 37.9098 41.6682 37.7193 42.0236 37.6162C42.3907 37.5485 42.7688 37.5708 43.1255 37.6813L46.8823 38.6698C47.0184 38.7095 47.1625 38.7132 47.3005 38.6804C47.4384 38.6477 47.5655 38.5797 47.6693 38.483C47.8133 38.3529 47.9044 38.1744 47.9253 37.9814C47.9387 37.8909 47.9317 37.7985 47.9049 37.711C47.878 37.6234 47.8319 37.543 47.77 37.4756C47.6627 37.3594 47.5219 37.2794 47.3671 37.2468L44.4582 36.4619C44.1321 36.3641 43.7932 36.316 43.4529 36.3192C43.1703 36.3263 42.8932 36.3981 42.6427 36.5291C43.215 35.8071 43.5011 35.0809 43.5011 34.3505C43.4816 33.5769 43.1652 32.8405 42.6176 32.2938C41.9096 31.52 41.1358 31.1499 40.2963 31.1835C39.4568 31.2171 38.5837 31.6473 37.6771 32.4742L34.7934 35.1145C34.7102 35.1825 34.6416 35.2667 34.5918 35.3619C34.542 35.4571 34.5121 35.5614 34.5037 35.6686C34.5012 35.7738 34.5204 35.8785 34.5601 35.976C34.5998 36.0735 34.6592 36.1617 34.7346 36.2352L41.1799 43.2766ZM38.4074 33.5635C39.0175 33.0038 39.5701 32.7072 40.0655 32.6736C40.5587 32.64 41.033 32.8709 41.4842 33.3641C41.9355 33.8573 42.1264 34.3568 42.053 34.8563C41.9795 35.3559 41.6332 35.8826 41.0372 36.4346L38.8734 38.418L36.2436 35.5468L38.4074 33.5635Z" fill="white"/>
<path d="M57.7161 31.6914C57.7384 31.586 57.7397 31.4772 57.7199 31.3714C57.7001 31.2655 57.6595 31.1645 57.6006 31.0743L52.658 22.843C52.5537 22.6532 52.38 22.511 52.1732 22.4463C52.073 22.4186 51.968 22.4126 51.8653 22.4285C51.7625 22.4444 51.6643 22.482 51.5772 22.5387C51.487 22.5878 51.4087 22.6562 51.3478 22.7388C51.2869 22.8215 51.2448 22.9165 51.2246 23.0172C51.1887 23.2296 51.2344 23.4478 51.3526 23.6279L55.2836 30.1677L45.8182 26.3668C45.7065 26.3162 45.5839 26.2946 45.4617 26.3042C45.3395 26.3137 45.2217 26.354 45.1193 26.4214C45.0272 26.472 44.9468 26.5416 44.8835 26.6255C44.8202 26.7095 44.7754 26.8058 44.752 26.9083C44.7287 27.0138 44.7268 27.123 44.7462 27.2293C44.7657 27.3356 44.8062 27.437 44.8653 27.5274L49.8079 35.7483C49.9097 35.9417 50.0829 36.0877 50.2906 36.1555C50.3889 36.1829 50.492 36.1886 50.5927 36.1723C50.6935 36.156 50.7895 36.118 50.8741 36.061C50.9653 36.0111 51.0448 35.9422 51.107 35.8589C51.1693 35.7756 51.213 35.6799 51.2351 35.5783C51.2767 35.366 51.2329 35.1458 51.1133 34.9655L47.1907 28.4383L56.6478 32.2161C56.7595 32.2679 56.8827 32.2901 57.0054 32.2805C57.1282 32.2709 57.2464 32.23 57.3488 32.1615C57.4388 32.1123 57.5178 32.0452 57.5809 31.9643C57.6441 31.8835 57.6901 31.7906 57.7161 31.6914Z" fill="white"/>
<path d="M60.0562 30.5203C60.2463 30.596 60.4575 30.5998 60.6502 30.5308C60.7818 30.4841 60.8975 30.4012 60.9839 30.2915C61.0792 30.1718 61.1336 30.0247 61.1392 29.8718L61.349 27.3071L66.7786 25.4182L68.5289 27.3071C68.6266 27.4183 68.7552 27.498 68.8983 27.5358C69.0312 27.57 69.1712 27.5649 69.3013 27.5211C69.4899 27.4557 69.6482 27.3236 69.7462 27.1497C69.7989 27.0685 69.8322 26.9763 69.8435 26.8802C69.8547 26.7841 69.8437 26.6867 69.8113 26.5956C69.7706 26.4948 69.7107 26.4028 69.635 26.3248L62.2767 18.6224C62.1535 18.4899 61.9908 18.4009 61.8129 18.3684C61.6368 18.3318 61.454 18.3434 61.284 18.402C61.1143 18.4602 60.964 18.564 60.8495 18.7021C60.7279 18.8369 60.6541 19.008 60.6397 19.189L59.6344 29.8025C59.623 29.9103 59.6323 30.0193 59.6616 30.1236C59.6924 30.2157 59.744 30.2994 59.8124 30.3682C59.8809 30.437 59.9643 30.489 60.0562 30.5203ZM61.9451 20.2468L65.8299 24.4003L61.4834 25.9072L61.9451 20.2468Z" fill="white"/>
<path d="M72.1367 26.1255C72.1467 26.2265 72.1778 26.3243 72.2281 26.4125C72.2784 26.5008 72.3466 26.5774 72.4284 26.6376C72.5154 26.6957 72.6131 26.7359 72.7158 26.7557C72.8186 26.7755 72.9242 26.7746 73.0266 26.753L78.5673 25.9135C78.768 25.896 78.9554 25.8057 79.0941 25.6595C79.1978 25.5048 79.2398 25.3169 79.2119 25.1328C79.1839 24.9486 79.088 24.7817 78.943 24.6647C78.7681 24.5652 78.5622 24.5345 78.3658 24.5787L73.6457 25.2944L72.2983 16.4145C72.2909 16.3048 72.2597 16.198 72.2068 16.1016C72.154 16.0051 72.0808 15.9213 71.9923 15.856C71.9039 15.7907 71.8022 15.7455 71.6945 15.7234C71.5868 15.7013 71.4756 15.7029 71.3685 15.7282C71.2618 15.7397 71.1586 15.7735 71.0657 15.8273C70.9728 15.8812 70.8922 15.954 70.8292 16.0409C70.7679 16.1297 70.7249 16.2298 70.7025 16.3353C70.6802 16.4409 70.679 16.5498 70.699 16.6558L72.1367 26.1255Z" fill="white"/>
<path d="M87.3633 25.7309L90.4191 26.1003C92.1974 26.3143 93.6323 26.0002 94.7236 25.1579C95.815 24.3156 96.467 23.0207 96.6797 21.2731C96.8924 19.5269 96.5678 18.1173 95.7059 17.0441C94.844 15.9709 93.5245 15.3266 91.7476 15.1111L88.6918 14.7417C88.5861 14.7228 88.4777 14.7255 88.373 14.7496C88.2684 14.7738 88.1698 14.819 88.0831 14.8824C88.0019 14.949 87.9352 15.0317 87.8872 15.1252C87.8392 15.2187 87.8109 15.3211 87.804 15.4259L86.6623 24.8578C86.6443 24.9613 86.6477 25.0674 86.6722 25.1695C86.6968 25.2717 86.742 25.3677 86.805 25.4518C86.8744 25.5335 86.9597 25.6004 87.0556 25.6484C87.1515 25.6963 87.2562 25.7244 87.3633 25.7309ZM89.3403 16.1794L91.4915 16.4396C94.1947 16.7657 95.3785 18.311 95.0427 21.0758C94.7069 23.8406 93.1887 25.0649 90.4883 24.7487L88.3371 24.4884L89.3403 16.1794Z" fill="white"/>
<path d="M99.5886 27.9388C99.6931 27.9748 99.8038 27.989 99.9139 27.9803C100.024 27.9716 100.131 27.9404 100.229 27.8884C100.321 27.8305 100.401 27.7548 100.463 27.6658C100.526 27.5768 100.57 27.4763 100.594 27.37L103.154 18.1355C103.192 18.0323 103.207 17.9222 103.197 17.8128C103.188 17.7034 103.156 17.5973 103.102 17.5018C103.048 17.4062 102.973 17.3235 102.884 17.2594C102.795 17.1952 102.693 17.1511 102.586 17.1301C102.482 17.0953 102.373 17.0829 102.264 17.0938C102.155 17.1046 102.05 17.1385 101.956 17.1931C101.864 17.2495 101.784 17.3236 101.72 17.4112C101.657 17.4987 101.611 17.5979 101.587 17.7031L99.0262 26.9482C98.9918 27.0512 98.9787 27.1601 98.9878 27.2684C98.9968 27.3766 99.0277 27.4819 99.0786 27.5778C99.1346 27.6695 99.2087 27.7488 99.2964 27.8109C99.3841 27.873 99.4835 27.9165 99.5886 27.9388Z" fill="white"/>
<path d="M103.07 28.5663C103.155 28.7527 103.304 28.902 103.49 28.9861C103.623 29.0437 103.77 29.061 103.913 29.036C104.056 29.011 104.188 28.9448 104.294 28.8455L106.198 27.1161L111.445 29.4541V32.0209C111.439 32.169 111.479 32.3153 111.558 32.4407C111.63 32.5578 111.736 32.6501 111.862 32.7051C112.044 32.7867 112.249 32.7987 112.439 32.7387C112.532 32.7147 112.618 32.6699 112.691 32.6077C112.763 32.5455 112.821 32.4676 112.859 32.3798C112.9 32.2784 112.919 32.1699 112.916 32.0608L112.817 21.4075C112.819 21.2265 112.762 21.0498 112.656 20.9037C112.551 20.7576 112.41 20.6417 112.246 20.5679C112.082 20.4946 111.9 20.4678 111.722 20.4903C111.543 20.5053 111.374 20.5791 111.241 20.7002L103.259 27.7541C103.174 27.8247 103.103 27.9109 103.049 28.0081C103.01 28.0965 102.991 28.1928 102.995 28.2897C102.998 28.3865 103.024 28.4812 103.07 28.5663ZM111.466 22.354V28.0417L107.268 26.1696L111.466 22.354Z" fill="white"/>
<path d="M115.117 34.6884L119.735 37.8618C119.892 37.9859 120.091 38.0472 120.291 38.0339C120.473 37.9934 120.632 37.8857 120.738 37.7322C120.843 37.5788 120.887 37.3911 120.86 37.2069C120.801 37.0141 120.672 36.8501 120.499 36.7473L116.563 34.0462L121.647 26.6418C121.716 26.5566 121.766 26.4574 121.793 26.351C121.82 26.2446 121.824 26.1335 121.804 26.0255C121.784 25.9175 121.741 25.8151 121.678 25.7255C121.614 25.6358 121.532 25.5611 121.437 25.5063C121.351 25.4418 121.252 25.396 121.147 25.3717C121.042 25.3475 120.934 25.3455 120.828 25.3657C120.723 25.3886 120.623 25.4323 120.535 25.4943C120.446 25.5563 120.371 25.6353 120.314 25.7267L114.897 33.6223C114.836 33.703 114.792 33.7957 114.768 33.8943C114.745 33.993 114.742 34.0955 114.761 34.1952C114.784 34.297 114.828 34.3929 114.89 34.4776C114.951 34.5623 115.028 34.6339 115.117 34.6884Z" fill="white"/>
<path d="M124.828 42.605C125.496 43.2975 126.34 43.7946 127.269 44.0426C128.149 44.2586 129.073 44.206 129.922 43.8915C130.881 43.5029 131.75 42.9224 132.476 42.1858C133.202 41.4492 133.77 40.5719 134.145 39.6079C134.448 38.7564 134.486 37.8329 134.254 36.9593C133.969 36.0473 133.464 35.2194 132.784 34.5485C132.103 33.8776 131.268 33.3844 130.352 33.1122C129.476 32.8921 128.553 32.9426 127.706 33.2571C126.732 33.6273 125.855 34.2144 125.141 34.9738C124.397 35.6937 123.83 36.5757 123.483 37.5511C123.187 38.4041 123.149 39.3254 123.374 40.1998C123.63 41.1193 124.133 41.9512 124.828 42.605ZM124.721 39.058C124.814 38.0912 125.349 37.1118 126.327 36.1198C127.305 35.1278 128.275 34.5807 129.236 34.4785C130.197 34.3764 131.069 34.7115 131.851 35.4838C132.633 36.2562 132.987 37.1307 132.913 38.1073C132.825 39.0699 132.292 40.0494 131.314 41.0456C130.336 42.0418 129.362 42.5889 128.392 42.6868C127.425 42.789 126.546 42.4504 125.754 41.671C124.962 40.8917 124.618 40.0235 124.721 39.0664V39.058Z" fill="white"/>
<path d="M132.432 47.0691C131.968 47.8651 131.761 48.7849 131.838 49.703C131.945 50.7089 132.306 51.6709 132.888 52.4986C133.205 52.9761 133.56 53.4274 133.95 53.8481C134.295 54.2305 134.681 54.5746 135.1 54.8744C135.274 55.0393 135.5 55.1393 135.74 55.1577C136.004 55.1251 136.254 55.0214 136.464 54.8576L139.528 52.8323C139.604 52.7868 139.669 52.726 139.72 52.6536C139.77 52.5813 139.805 52.4992 139.822 52.4125C139.849 52.2388 139.806 52.0614 139.702 51.9193L138.099 49.5309C138.009 49.3747 137.862 49.259 137.69 49.2077C137.525 49.1777 137.356 49.2125 137.216 49.3048C137.077 49.3972 136.979 49.5399 136.942 49.703C136.922 49.8815 136.971 50.0609 137.079 50.2046L138.212 51.9214L135.633 53.6277C134.991 53.1155 134.435 52.5049 133.985 51.8186C133.297 50.779 133.087 49.787 133.356 48.8425C133.624 47.8981 134.353 47.0306 135.54 46.2401C136.71 45.4677 137.776 45.1396 138.739 45.2557C139.702 45.3719 140.512 45.9315 141.169 46.9347C141.447 47.3398 141.652 47.7901 141.776 48.2654C141.886 48.7922 141.923 49.3319 141.885 49.8688C141.885 49.9764 141.893 50.0838 141.91 50.1899C141.926 50.2752 141.959 50.3561 142.009 50.4271C142.05 50.4888 142.105 50.5399 142.17 50.5764C142.234 50.6128 142.306 50.6336 142.38 50.637C142.553 50.6506 142.726 50.6031 142.867 50.5027C142.969 50.4363 143.054 50.3468 143.115 50.2414C143.176 50.136 143.211 50.0177 143.218 49.8961C143.315 49.281 143.281 48.6522 143.117 48.0513C142.939 47.3835 142.651 46.75 142.265 46.1771C141.742 45.3439 141.01 44.6628 140.141 44.2021C139.324 43.7858 138.402 43.6249 137.492 43.7404C136.463 43.9111 135.481 44.2955 134.61 44.8688C133.738 45.4421 132.996 46.1917 132.432 47.0691Z" fill="white"/>
<path d="M137.837 58.9061C137.408 59.8981 137.469 61.0797 138.017 62.4509C138.565 63.8221 139.335 64.7176 140.326 65.1373C141.326 65.5655 142.511 65.506 143.881 64.9589L149.401 62.7531C149.504 62.7189 149.599 62.664 149.68 62.5919C149.761 62.5197 149.827 62.4318 149.873 62.3334C149.914 62.2333 149.935 62.1258 149.933 62.0175C149.931 61.9091 149.907 61.8024 149.862 61.7038C149.828 61.603 149.772 61.5105 149.7 61.4321C149.628 61.3537 149.54 61.2912 149.443 61.2483C149.342 61.2084 149.235 61.1891 149.126 61.1916C149.018 61.1941 148.912 61.2184 148.813 61.263L143.199 63.5045C142.254 63.8802 141.451 63.9368 140.781 63.6745C140.112 63.4122 139.602 62.835 139.249 61.9535C138.896 61.072 138.865 60.2892 139.171 59.6449C139.478 59.0005 140.101 58.4884 141.043 58.1107L146.658 55.8692C146.761 55.8348 146.856 55.7798 146.937 55.7077C147.018 55.6355 147.084 55.5477 147.13 55.4494C147.174 55.3502 147.196 55.243 147.196 55.1346C147.196 55.0262 147.174 54.919 147.13 54.8198C147.094 54.7191 147.039 54.6267 146.967 54.548C146.895 54.4694 146.807 54.4062 146.71 54.3623C146.609 54.3229 146.502 54.3041 146.394 54.307C146.285 54.3099 146.179 54.3344 146.08 54.3791L140.569 56.5807C139.173 57.1389 138.262 57.9141 137.837 58.9061Z" fill="white"/>
<path d="M151.575 68.2099C151.561 68.1034 151.525 68.0008 151.469 67.9085C151.414 67.8161 151.341 67.7359 151.254 67.6727C151.165 67.6163 151.066 67.5785 150.963 67.5615C150.859 67.5445 150.753 67.5488 150.652 67.574L141.327 69.3894C141.223 69.4043 141.122 69.4403 141.033 69.4951C140.943 69.55 140.865 69.6226 140.804 69.7085C140.748 69.7996 140.71 69.9012 140.694 70.0073C140.677 70.1134 140.683 70.2216 140.71 70.3255L141.814 75.9922C141.839 76.1919 141.938 76.375 142.091 76.5064C142.163 76.5604 142.248 76.5974 142.337 76.6145C142.426 76.6316 142.517 76.6283 142.605 76.605C143.025 76.5232 143.188 76.2356 143.094 75.7424L142.139 70.8418L145.73 70.1429L146.624 74.735C146.65 74.9347 146.749 75.1178 146.901 75.2492C147.053 75.3488 147.238 75.385 147.417 75.3501C147.595 75.3152 147.753 75.212 147.856 75.0624C147.948 74.8838 147.97 74.6774 147.919 74.4832L147.025 69.889L150.446 69.2215L151.401 74.1222C151.426 74.3208 151.521 74.5039 151.67 74.6385C151.741 74.6925 151.823 74.7296 151.911 74.7471C151.998 74.7645 152.089 74.7618 152.175 74.7392C152.265 74.7272 152.352 74.6954 152.428 74.6461C152.504 74.5967 152.568 74.531 152.616 74.4538C152.708 74.2751 152.73 74.0688 152.679 73.8745L151.575 68.2099Z" fill="white"/>
<path d="M35.8889 119.556C36.1575 118.205 35.8014 116.78 34.8206 115.283L33.1416 112.708C33.088 112.615 33.0161 112.533 32.9303 112.468C32.8444 112.403 32.7464 112.356 32.6421 112.33C32.5387 112.312 32.4327 112.315 32.3303 112.338C32.2279 112.362 32.1313 112.405 32.046 112.467L24.0938 117.667C24.0033 117.721 23.9245 117.791 23.8621 117.876C23.7997 117.96 23.755 118.056 23.7307 118.159C23.713 118.264 23.7166 118.373 23.7415 118.477C23.7664 118.582 23.812 118.681 23.8755 118.767L25.5546 121.344C26.534 122.842 27.6988 123.737 29.049 124.031C30.3992 124.325 31.8096 123.99 33.2801 123.026C34.7563 122.064 35.6258 120.908 35.8889 119.556ZM26.6354 120.526L25.4496 118.713L32.4532 114.131L33.639 115.944C35.1291 118.221 34.7094 120.122 32.3798 121.647C30.0501 123.172 28.1367 122.798 26.6396 120.526H26.6354Z" fill="white"/>
<path d="M40.9113 130.415C40.8904 130.216 40.7971 130.03 40.6489 129.895L37.4021 126.524L39.9206 124.106L43.3857 127.702C43.5146 127.855 43.694 127.957 43.8915 127.989C43.9808 127.996 44.0705 127.982 44.1537 127.949C44.2369 127.916 44.3116 127.864 44.3721 127.798C44.4403 127.738 44.4944 127.664 44.5307 127.581C44.5669 127.498 44.5845 127.408 44.582 127.318C44.5608 127.118 44.4675 126.933 44.3197 126.797L40.2963 122.635C40.2264 122.554 40.1407 122.487 40.0444 122.439C39.9481 122.392 39.8432 122.364 39.736 122.358C39.6309 122.36 39.5272 122.382 39.431 122.424C39.3348 122.467 39.2479 122.528 39.1756 122.604L32.3357 129.196C32.2564 129.265 32.1919 129.349 32.1461 129.444C32.1002 129.538 32.0741 129.641 32.0692 129.746C32.0714 129.853 32.0952 129.959 32.1392 130.057C32.1832 130.155 32.2464 130.244 32.3252 130.317L36.3359 134.479C36.4651 134.632 36.6469 134.733 36.8459 134.76C36.9367 134.765 37.0275 134.75 37.1118 134.716C37.196 134.682 37.2716 134.63 37.3329 134.562C37.6414 134.267 37.6225 133.933 37.2741 133.574L33.809 129.979L36.443 127.439L39.6898 130.81C39.8206 130.963 40.0026 131.063 40.2019 131.091C40.3834 131.091 40.5576 131.02 40.6883 130.894C40.8189 130.768 40.8958 130.597 40.9029 130.415H40.9113Z" fill="white"/>
<path d="M50.9832 135.081C51.0452 135.124 51.1163 135.152 51.191 135.163C51.2656 135.174 51.3418 135.167 51.4135 135.144C51.5827 135.102 51.7315 135.002 51.8333 134.86C51.9068 134.76 51.9566 134.645 51.9788 134.523C52.001 134.4 51.995 134.275 51.9613 134.155C51.8381 133.544 51.5847 132.966 51.2183 132.462C50.8108 131.896 50.3148 131.4 49.7492 130.992C49.1619 130.546 48.4878 130.226 47.77 130.054C47.1516 129.905 46.504 129.928 45.8979 130.121C45.3203 130.316 44.8187 130.687 44.4645 131.183C44.1117 131.625 43.9186 132.173 43.9167 132.739C43.9408 133.297 44.1092 133.84 44.4057 134.315C44.8038 134.957 45.2613 135.561 45.772 136.118C46.2533 136.636 46.666 137.215 46.9998 137.839C47.1005 138.029 47.144 138.244 47.125 138.458C47.106 138.672 47.0253 138.876 46.8927 139.045C46.7461 139.265 46.5458 139.444 46.3107 139.564C46.0756 139.685 45.8136 139.743 45.5495 139.734C45.0025 139.721 44.3903 139.467 43.7131 138.97C42.7787 138.301 42.0917 137.342 41.7592 136.241C41.7032 136.055 41.5955 135.888 41.4485 135.761C41.3884 135.718 41.3192 135.69 41.2463 135.679C41.1735 135.668 41.099 135.673 41.0288 135.696C40.8625 135.744 40.7179 135.847 40.6195 135.99C40.5444 136.087 40.4927 136.2 40.4683 136.321C40.4439 136.441 40.4475 136.565 40.4789 136.684C40.6275 137.323 40.9141 137.921 41.3184 138.437C41.7797 139.052 42.3309 139.595 42.9534 140.047C43.5492 140.501 44.2299 140.832 44.9556 141.02C45.5661 141.181 46.2095 141.168 46.813 140.983C47.3837 140.798 47.8797 140.434 48.2276 139.946C48.5719 139.515 48.7446 138.972 48.7124 138.422C48.6581 137.866 48.4686 137.332 48.1604 136.867C47.7341 136.217 47.2606 135.599 46.7437 135.018C46.1575 134.327 45.7804 133.761 45.6125 133.32C45.5298 133.112 45.5041 132.885 45.538 132.664C45.572 132.443 45.6643 132.234 45.8056 132.061C45.955 131.839 46.1575 131.658 46.3947 131.535C46.6318 131.411 46.8961 131.349 47.1635 131.353C47.7232 131.353 48.3269 131.592 48.9747 132.069C49.4019 132.367 49.771 132.74 50.064 133.171C50.3414 133.62 50.5534 134.106 50.6936 134.615C50.7464 134.793 50.8465 134.954 50.9832 135.081Z" fill="white"/>
<path d="M56.2092 135.161C56.1171 135.105 56.0144 135.07 55.9078 135.056C55.8012 135.043 55.6929 135.052 55.59 135.083C55.4868 135.117 55.3915 135.172 55.31 135.244C55.2285 135.317 55.1624 135.404 55.1157 135.503L50.5236 143.927C50.4664 144.02 50.4287 144.124 50.4128 144.232C50.3969 144.341 50.4032 144.451 50.4312 144.557C50.5088 144.762 50.6576 144.932 50.8503 145.036C51.043 145.14 51.2668 145.171 51.4806 145.123C51.5832 145.088 51.6778 145.033 51.7589 144.961C51.8399 144.889 51.9059 144.801 51.9528 144.704L56.5429 136.279C56.6028 136.187 56.6421 136.083 56.6581 135.975C56.6741 135.866 56.6664 135.756 56.6355 135.65C56.6045 135.545 56.5512 135.448 56.479 135.365C56.4069 135.282 56.3177 135.216 56.2175 135.171L56.2092 135.161Z" fill="white"/>
<path d="M66.2895 139.809C65.7501 139.378 65.1422 139.039 64.4909 138.808C63.5759 138.447 62.5819 138.334 61.6093 138.481C60.7057 138.63 59.8682 139.048 59.2062 139.681C58.459 140.41 57.8957 141.307 57.5629 142.296C57.1744 143.274 57.0227 144.33 57.12 145.377C57.2184 146.294 57.5973 147.157 58.2051 147.85C58.8843 148.598 59.7433 149.16 60.7005 149.483C61.2391 149.68 61.7929 149.832 62.3565 149.938C62.8609 150.043 63.3755 150.092 63.8907 150.083C64.1293 150.112 64.3708 150.059 64.5749 149.932C64.7668 149.748 64.906 149.516 64.9778 149.26L66.2371 145.812C66.272 145.732 66.2901 145.646 66.2901 145.559C66.2901 145.472 66.272 145.386 66.2371 145.306C66.1552 145.15 66.0149 145.032 65.8467 144.979L63.1477 143.975C62.9815 143.905 62.795 143.9 62.6251 143.961C62.4754 144.034 62.3598 144.162 62.3027 144.319C62.2456 144.475 62.2513 144.648 62.3187 144.8C62.4078 144.956 62.5536 145.072 62.7258 145.123L64.6567 145.833L63.5926 148.746C62.7728 148.715 61.9631 148.554 61.1937 148.27C60.0226 147.841 59.2622 147.17 58.9124 146.255C58.5626 145.34 58.6325 144.209 59.1223 142.863C59.605 141.545 60.2682 140.648 61.1119 140.172C61.9556 139.697 62.935 139.663 64.0502 140.072C64.5143 140.233 64.9469 140.474 65.3283 140.783C65.7298 141.142 66.0794 141.554 66.3672 142.009C66.4305 142.096 66.5007 142.177 66.5771 142.252C66.6376 142.31 66.7089 142.355 66.787 142.385C66.8563 142.409 66.9304 142.416 67.0033 142.407C67.0762 142.397 67.1458 142.371 67.2067 142.33C67.3533 142.237 67.4636 142.097 67.5194 141.933C67.5619 141.819 67.5768 141.696 67.5629 141.575C67.5491 141.454 67.5068 141.338 67.4397 141.237C67.1605 140.685 66.7687 140.199 66.2895 139.809Z" fill="white"/>
<path d="M79.3208 142.149C79.2197 142.13 79.1156 142.134 79.0159 142.159C78.9162 142.184 78.8233 142.231 78.7436 142.296C78.5814 142.437 78.4792 142.635 78.4582 142.848L77.3605 150.404L72.4389 141.469C72.385 141.359 72.3036 141.264 72.2026 141.194C72.1015 141.124 71.9842 141.081 71.8618 141.069C71.7585 141.05 71.6524 141.053 71.5504 141.078C71.4484 141.103 71.3529 141.149 71.2699 141.213C71.1858 141.281 71.1159 141.364 71.064 141.458C71.0122 141.553 70.9794 141.656 70.9677 141.763L69.5888 151.258C69.5461 151.472 69.5882 151.694 69.7063 151.877C69.7652 151.961 69.8414 152.031 69.9298 152.082C70.0182 152.134 70.1166 152.165 70.2184 152.175C70.3205 152.194 70.4254 152.19 70.526 152.165C70.6266 152.139 70.7207 152.093 70.8019 152.028C70.969 151.891 71.0747 151.692 71.0957 151.476L72.1976 143.938L77.1213 152.857C77.1755 152.968 77.257 153.062 77.358 153.133C77.4589 153.203 77.5761 153.246 77.6984 153.258C77.8017 153.277 77.9078 153.274 78.0098 153.249C78.1118 153.224 78.2074 153.178 78.2903 153.113C78.3744 153.046 78.4443 152.963 78.4962 152.869C78.548 152.774 78.5808 152.671 78.5925 152.564L79.963 143.069C79.9833 142.963 79.9827 142.855 79.9611 142.75C79.9395 142.645 79.8973 142.545 79.8371 142.456C79.7778 142.371 79.7011 142.3 79.6121 142.247C79.523 142.194 79.4237 142.161 79.3208 142.149Z" fill="white"/>
<path d="M96.5705 147.667C96.1442 147.306 95.6363 147.055 95.0909 146.935C94.331 146.763 93.5593 146.649 92.7822 146.593C92.0997 146.554 91.4276 146.408 90.7905 146.16C90.5834 146.068 90.4049 145.923 90.2738 145.738C90.1427 145.553 90.0638 145.337 90.0455 145.111C89.9987 144.848 90.0183 144.577 90.1026 144.323C90.1869 144.07 90.3332 143.841 90.5282 143.659C90.9283 143.27 91.5279 143.02 92.3268 142.911C92.8416 142.829 93.367 142.841 93.8778 142.945C94.3876 143.077 94.8764 143.28 95.3302 143.547C95.495 143.641 95.6824 143.686 95.8716 143.679C95.9461 143.667 96.0167 143.638 96.0778 143.594C96.139 143.55 96.1891 143.492 96.2242 143.426C96.3137 143.279 96.3493 143.106 96.325 142.937C96.3083 142.813 96.2636 142.696 96.1945 142.592C96.1254 142.489 96.0337 142.403 95.9262 142.34C95.4125 141.986 94.8283 141.747 94.2136 141.639C93.5265 141.517 92.8242 141.506 92.1337 141.608C91.4004 141.695 90.6933 141.935 90.0581 142.311C89.5096 142.633 89.0608 143.1 88.761 143.661C88.4817 144.202 88.3803 144.819 88.4714 145.421C88.5249 145.984 88.7675 146.513 89.1598 146.92C89.5658 147.305 90.0648 147.577 90.6079 147.711C91.3399 147.895 92.0875 148.011 92.841 148.055C93.5478 148.093 94.2468 148.221 94.9209 148.437C95.1255 148.504 95.3065 148.628 95.4421 148.794C95.5777 148.961 95.662 149.164 95.6849 149.378C95.7326 149.638 95.7129 149.906 95.6276 150.156C95.5424 150.406 95.3945 150.63 95.1979 150.807C94.795 151.18 94.1779 151.422 93.3489 151.537C92.2135 151.707 91.0539 151.497 90.0497 150.941C89.8796 150.848 89.6873 150.803 89.4935 150.811C89.4207 150.822 89.3514 150.85 89.2913 150.893C89.2312 150.936 89.1819 150.992 89.1472 151.057C89.0604 151.207 89.0285 151.383 89.0569 151.554C89.0706 151.676 89.1121 151.793 89.1784 151.897C89.2446 152 89.3338 152.087 89.4389 152.15C89.992 152.504 90.616 152.733 91.2669 152.82C92.0256 152.942 92.7983 152.948 93.5588 152.838C94.3033 152.752 95.0227 152.516 95.6744 152.146C96.2254 151.837 96.679 151.379 96.984 150.826C97.2655 150.296 97.3686 149.689 97.2778 149.096C97.2254 148.549 96.9737 148.041 96.5705 147.667Z" fill="white"/>
<path d="M106.158 138.328C105.97 138.255 105.762 138.255 105.574 138.328L98.0376 140.743C97.8422 140.791 97.6716 140.91 97.5591 141.077C97.5138 141.158 97.4871 141.249 97.4809 141.342C97.4747 141.435 97.4893 141.528 97.5234 141.614C97.6619 142.034 97.9683 142.181 98.4469 142.034L101.44 141.079L104.168 149.634C104.222 149.786 104.318 149.92 104.446 150.019C104.574 150.118 104.728 150.178 104.889 150.192C105.05 150.206 105.212 150.173 105.355 150.097C105.497 150.021 105.615 149.905 105.694 149.764C105.74 149.666 105.767 149.56 105.772 149.452C105.777 149.344 105.76 149.236 105.723 149.134L102.995 140.58L105.988 139.618C106.466 139.464 106.637 139.173 106.5 138.745C106.477 138.655 106.435 138.57 106.376 138.498C106.317 138.426 106.242 138.368 106.158 138.328Z" fill="white"/>
<path d="M116.211 133.708C116.164 133.609 116.097 133.521 116.015 133.449C115.933 133.377 115.836 133.322 115.732 133.288C115.629 133.261 115.522 133.254 115.416 133.269C115.31 133.283 115.209 133.319 115.117 133.375C115.021 133.422 114.935 133.489 114.866 133.571C114.797 133.653 114.746 133.75 114.717 133.853C114.688 133.959 114.681 134.069 114.696 134.177C114.711 134.285 114.748 134.389 114.805 134.483L117.699 139.778C118.184 140.671 118.336 141.464 118.154 142.158C117.972 142.852 117.464 143.428 116.628 143.885C115.789 144.347 115.027 144.464 114.343 144.236C113.659 144.008 113.077 143.448 112.597 142.557L109.703 137.259C109.656 137.16 109.589 137.072 109.507 137C109.424 136.928 109.328 136.873 109.224 136.84C109.015 136.792 108.796 136.822 108.608 136.924C108.42 137.027 108.277 137.194 108.204 137.396C108.176 137.502 108.17 137.612 108.186 137.72C108.202 137.828 108.239 137.932 108.296 138.025L111.138 143.237C111.85 144.539 112.725 145.344 113.762 145.65C114.798 145.957 115.965 145.757 117.26 145.05C118.546 144.35 119.343 143.477 119.651 142.431C119.959 141.384 119.759 140.214 119.053 138.922L116.211 133.708Z" fill="white"/>
<path d="M125.364 127.278C123.988 127.182 122.62 127.714 121.258 128.873L118.912 130.867C118.826 130.932 118.755 131.013 118.701 131.107C118.648 131.2 118.614 131.303 118.601 131.41C118.596 131.515 118.611 131.62 118.647 131.719C118.683 131.818 118.739 131.908 118.811 131.985L124.965 139.222C125.029 139.305 125.109 139.374 125.201 139.426C125.292 139.477 125.393 139.509 125.498 139.52C125.605 139.526 125.711 139.511 125.812 139.475C125.913 139.439 126.005 139.383 126.083 139.31L128.428 137.316C129.792 136.156 130.535 134.888 130.657 133.513C130.778 132.138 130.27 130.78 129.133 129.441C127.994 128.095 126.738 127.374 125.364 127.278ZM127.481 136.34L125.832 137.742L120.41 131.368L122.06 129.964C124.134 128.201 126.072 128.38 127.876 130.501C129.679 132.622 129.548 134.569 127.481 136.34Z" fill="white"/>
<path d="M129.074 122.188C128.997 122.11 128.905 122.049 128.802 122.01C128.699 121.971 128.59 121.954 128.48 121.962C128.371 121.969 128.264 122 128.168 122.053C128.071 122.105 127.987 122.178 127.922 122.266C127.848 122.343 127.79 122.436 127.754 122.537C127.718 122.638 127.704 122.746 127.712 122.853C127.722 122.961 127.754 123.065 127.805 123.16C127.856 123.254 127.926 123.338 128.01 123.405L135.238 129.716C135.317 129.792 135.41 129.851 135.512 129.89C135.614 129.929 135.723 129.947 135.832 129.943C136.048 129.912 136.245 129.805 136.387 129.641C136.53 129.476 136.61 129.267 136.611 129.049C136.598 128.941 136.565 128.837 136.512 128.742C136.459 128.647 136.388 128.564 136.302 128.497L129.074 122.188Z" fill="white"/>
<path d="M140.714 113.825C139.852 113.248 138.87 112.875 137.843 112.735C136.947 112.619 136.037 112.776 135.232 113.187C134.402 113.657 133.7 114.324 133.188 115.129C132.676 115.934 132.369 116.853 132.294 117.804C132.264 118.708 132.509 119.599 132.995 120.362C133.563 121.235 134.321 121.968 135.213 122.505C136.073 123.081 137.055 123.45 138.082 123.584C138.979 123.692 139.887 123.535 140.695 123.13C141.54 122.688 142.247 122.02 142.737 121.202C143.275 120.403 143.583 119.473 143.629 118.511C143.654 117.606 143.407 116.714 142.92 115.951C142.356 115.083 141.601 114.356 140.714 113.825ZM141.625 120.503C141.036 121.43 140.259 121.951 139.293 122.064C138.328 122.178 137.258 121.861 136.084 121.114C134.909 120.366 134.169 119.534 133.866 118.616C133.562 117.698 133.702 116.775 134.285 115.848C134.886 114.902 135.666 114.372 136.626 114.257C137.585 114.142 138.653 114.457 139.828 115.201C141.004 115.949 141.744 116.788 142.049 117.72C142.354 118.652 142.212 119.579 141.625 120.503Z" fill="white"/>
<path d="M69.635 73.1169C69.9252 72.5169 70.0752 71.8588 70.0736 71.1923C70.0923 70.7666 70.0148 70.3421 69.8469 69.9504C69.6791 69.5588 69.4251 69.2099 69.104 68.9298C68.4576 68.3702 67.5866 68.0903 66.491 68.0903C65.8176 68.0926 65.1498 68.2133 64.5182 68.4471C63.9057 68.661 63.3369 68.9838 62.8392 69.4C62.7333 69.4745 62.6474 69.574 62.5892 69.6897C62.531 69.8054 62.5022 69.9337 62.5055 70.0632C62.5012 70.2487 62.5604 70.4301 62.6734 70.5774C62.7175 70.6418 62.7767 70.6946 62.8458 70.7312C62.9149 70.7678 62.9919 70.787 63.07 70.7872C63.1594 70.7873 63.2476 70.7672 63.3282 70.7285C63.434 70.6771 63.5363 70.6189 63.6346 70.5543C64.5623 69.8365 65.4962 69.4776 66.4365 69.4776C67.0556 69.4776 67.532 69.635 67.8699 69.9498C68.0451 70.1265 68.1808 70.3383 68.268 70.5713C68.3552 70.8043 68.3919 71.0532 68.3757 71.3014C68.3696 71.7807 68.2502 72.2518 68.0273 72.6761C67.7256 73.2405 67.3462 73.7597 66.9003 74.2187L63.0113 78.4939C62.8233 78.6775 62.7154 78.928 62.7111 79.1907C62.7086 79.2875 62.7259 79.3838 62.762 79.4737C62.7981 79.5636 62.8522 79.6451 62.921 79.7133C62.9973 79.7852 63.0875 79.841 63.186 79.877C63.2844 79.9131 63.3892 79.9288 63.494 79.9232H69.8889C70.4304 79.9232 70.7012 79.6853 70.7012 79.2096C70.7064 79.1137 70.6903 79.0178 70.6541 78.9289C70.6178 78.84 70.5622 78.7602 70.4913 78.6954C70.3189 78.5627 70.1039 78.4977 69.8868 78.5128H65.0324L68.1658 75.1653C68.7501 74.5555 69.2448 73.8658 69.635 73.1169Z" fill="white"/>
<path d="M75.0225 69.6182C74.3089 70.6368 73.9521 72.1234 73.9521 74.0781C73.9521 76.0327 74.3089 77.5138 75.0225 78.5212C75.7361 79.5398 76.7722 80.0484 78.1308 80.047C79.4894 80.0456 80.5262 79.537 81.2412 78.5212C81.9533 77.5054 82.3094 76.0188 82.3094 74.0613C82.3094 72.1039 81.9533 70.62 81.2412 69.6098C80.5276 68.5982 79.4908 68.0924 78.1308 68.0924C76.7708 68.0924 75.7347 68.601 75.0225 69.6182ZM80.005 70.5711C80.4038 71.307 80.6024 72.4704 80.601 74.0613C80.5996 75.6522 80.401 76.8184 80.005 77.5599C79.8217 77.8968 79.551 78.178 79.2214 78.374C78.8917 78.5699 78.5153 78.6734 78.1318 78.6734C77.7483 78.6734 77.372 78.5699 77.0423 78.374C76.7127 78.178 76.4419 77.8968 76.2587 77.5599C75.8599 76.8142 75.6605 75.6508 75.6605 74.0697C75.6605 72.4886 75.8599 71.3252 76.2587 70.5795C76.4443 70.2454 76.7158 69.9671 77.0452 69.7733C77.3745 69.5795 77.7497 69.4773 78.1318 69.4773C78.514 69.4773 78.8892 69.5795 79.2185 69.7733C79.5479 69.9671 79.8194 70.2454 80.005 70.5795V70.5711Z" fill="white"/>
<path d="M86.2887 70.7956C86.3774 70.7959 86.465 70.7758 86.5447 70.7369C86.6514 70.686 86.7545 70.6278 86.8532 70.5627C87.7809 69.8449 88.7148 69.486 89.6551 69.486C90.2742 69.486 90.7507 69.6434 91.0886 69.9582C91.2638 70.1348 91.3995 70.3467 91.4867 70.5797C91.5739 70.8127 91.6106 71.0616 91.5944 71.3098C91.5882 71.7891 91.4688 72.2602 91.246 72.6845C90.9428 73.248 90.5635 73.767 90.1189 74.2271L86.2215 78.4939C86.0349 78.6783 85.9279 78.9284 85.9235 79.1907C85.9209 79.2875 85.9382 79.3838 85.9743 79.4737C86.0104 79.5636 86.0646 79.6451 86.1334 79.7133C86.2094 79.7851 86.2991 79.8407 86.3973 79.8768C86.4954 79.9129 86.5998 79.9287 86.7042 79.9232H93.1055C93.647 79.9232 93.9177 79.6853 93.9177 79.2096C93.923 79.1137 93.9069 79.0178 93.8706 78.9289C93.8343 78.84 93.7787 78.7602 93.7078 78.6954C93.5354 78.5627 93.3204 78.4977 93.1034 78.5128H88.2447L91.3782 75.1653C91.9627 74.5588 92.4574 73.8719 92.8473 73.1253C93.1392 72.5258 93.29 71.8674 93.2881 71.2007C93.3067 70.775 93.2292 70.3505 93.0614 69.9588C92.8935 69.5672 92.6396 69.2183 92.3184 68.9382C91.6699 68.3799 90.801 68.0987 89.7055 68.0987C89.032 68.1009 88.3642 68.2217 87.7326 68.4555C87.1202 68.6696 86.5514 68.9924 86.0536 69.4083C85.9484 69.4834 85.8631 69.5831 85.8053 69.6987C85.7475 69.8143 85.7189 69.9423 85.722 70.0716C85.718 70.2567 85.7764 70.4378 85.8878 70.5858C85.9328 70.6504 85.9927 70.7033 86.0625 70.7398C86.1323 70.7764 86.2099 70.7955 86.2887 70.7956Z" fill="white"/>
<path d="M101.343 80.047C102.703 80.047 103.739 79.5384 104.451 78.5212C105.164 77.504 105.52 76.0174 105.522 74.0613C105.522 72.1025 105.165 70.6186 104.451 69.6098C103.738 68.601 102.702 68.0952 101.343 68.0924C99.9831 68.0924 98.9471 68.601 98.2349 69.6182C97.5227 70.6354 97.1687 72.1248 97.1729 74.0865C97.1729 76.0327 97.5297 77.5138 98.2433 78.5296C98.9569 79.5454 99.9901 80.0512 101.343 80.047ZM99.469 70.5711C99.6548 70.2371 99.9266 69.9588 100.256 69.7651C100.586 69.5714 100.961 69.4693 101.343 69.4693C101.725 69.4693 102.101 69.5714 102.43 69.7651C102.76 69.9588 103.031 70.2371 103.217 70.5711C103.613 71.307 103.812 72.4704 103.813 74.0613C103.815 75.6522 103.616 76.8184 103.217 77.5599C103.034 77.8973 102.764 78.1791 102.434 78.3754C102.104 78.5717 101.727 78.6753 101.343 78.6753C100.959 78.6753 100.583 78.5717 100.253 78.3754C99.9228 78.1791 99.652 77.8973 99.469 77.5599C99.073 76.8142 98.8743 75.6508 98.8729 74.0697C98.8715 72.4886 99.0702 71.3224 99.469 70.5711Z" fill="white"/>
<path d="M70.7452 99.5949C70.8444 99.4951 70.922 99.3759 70.9733 99.2449C71.0245 99.1139 71.0483 98.9737 71.0433 98.8331C71.0476 98.691 71.0234 98.5494 70.9723 98.4168C70.9211 98.2841 70.8439 98.1631 70.7452 98.0607C70.6488 97.9606 70.5326 97.8816 70.4039 97.8288C70.2753 97.7761 70.1371 97.7507 69.9981 97.7543C69.8568 97.7499 69.7162 97.7749 69.585 97.8276C69.4539 97.8804 69.3351 97.9598 69.2362 98.0607C69.1376 98.1631 69.0604 98.2841 69.0092 98.4168C68.958 98.5494 68.9339 98.691 68.9382 98.8331C68.9341 98.972 68.9585 99.1102 69.0098 99.2394C69.0611 99.3686 69.1382 99.4859 69.2365 99.5841C69.3348 99.6824 69.4521 99.7595 69.5812 99.8108C69.7104 99.8621 69.8487 99.8865 69.9876 99.8824C70.1269 99.8893 70.2661 99.8673 70.3965 99.8179C70.5268 99.7684 70.6456 99.6925 70.7452 99.5949Z" fill="white"/>
<path d="M71.4084 89.7643C71.5593 89.8813 71.6801 90.0326 71.7607 90.2056C71.8414 90.3786 71.8796 90.5683 71.8723 90.7591C71.8755 91.1201 71.7875 91.476 71.6162 91.7938C71.3898 92.1866 71.1255 92.5564 70.8271 92.8977C70.4396 93.3587 70.1013 93.8588 69.8176 94.39C69.5709 94.907 69.4515 95.4754 69.4692 96.048C69.4605 96.2091 69.5104 96.3679 69.6098 96.495C69.6552 96.5495 69.7125 96.5928 69.7773 96.6215C69.842 96.6503 69.9126 96.6637 69.9834 96.6608C70.1129 96.6653 70.2395 96.6212 70.3381 96.537C70.4354 96.4485 70.4973 96.3277 70.5123 96.197C70.5611 95.7413 70.7179 95.3038 70.9698 94.9209C71.2834 94.4612 71.6344 94.0281 72.0192 93.626C72.3746 93.2398 72.6544 92.9166 72.8587 92.6564C73.0713 92.3833 73.2444 92.0816 73.3729 91.7602C73.5158 91.4048 73.5872 91.0246 73.5828 90.6416C73.5919 90.1479 73.445 89.6639 73.163 89.2585C72.8655 88.8423 72.4577 88.5174 71.9856 88.3203C71.4433 88.0917 70.8593 87.9787 70.2709 87.9887C69.6215 87.9927 68.9781 88.1136 68.3715 88.3455C67.767 88.5652 67.2079 88.8938 66.7219 89.3151C66.6226 89.3946 66.5427 89.4956 66.4882 89.6105C66.4336 89.7254 66.4059 89.8512 66.4071 89.9784C66.4016 90.1598 66.457 90.3379 66.5645 90.4842C66.6101 90.5497 66.671 90.6031 66.742 90.6397C66.813 90.6763 66.8918 90.695 66.9717 90.694C67.1677 90.6755 67.3556 90.6069 67.5173 90.4946C67.9387 90.1757 68.3916 89.9008 68.8689 89.674C69.278 89.4906 69.7219 89.3975 70.1702 89.4012C70.6121 89.379 71.0485 89.507 71.4084 89.7643Z" fill="white"/>
<path d="M79.3501 97.7543C79.2088 97.7495 79.0681 97.7743 78.9369 97.8271C78.8057 97.8799 78.687 97.9595 78.5883 98.0607C78.4894 98.163 78.4118 98.284 78.3603 98.4166C78.3088 98.5493 78.2842 98.6908 78.2882 98.8331C78.2846 98.9729 78.3098 99.112 78.3621 99.2418C78.4143 99.3715 78.4927 99.4892 78.5922 99.5875C78.6917 99.6858 78.8103 99.7627 78.9406 99.8135C79.071 99.8642 79.2104 99.8877 79.3501 99.8825C79.4881 99.8866 79.6255 99.8623 79.7537 99.811C79.8819 99.7597 79.9981 99.6826 80.0952 99.5844C80.1947 99.4848 80.2727 99.3657 80.3244 99.2347C80.376 99.1036 80.4001 98.9634 80.3953 98.8226C80.3993 98.6803 80.3747 98.5388 80.3232 98.4061C80.2717 98.2735 80.1941 98.1525 80.0952 98.0502C79.9983 97.952 79.882 97.875 79.7537 97.8241C79.6255 97.7731 79.4881 97.7494 79.3501 97.7543Z" fill="white"/>
<path d="M81.3314 88.3203C80.7884 88.0917 80.2037 87.9788 79.6146 87.9887C78.9687 87.9937 78.3289 88.1145 77.7257 88.3455C77.1212 88.5652 76.5621 88.8938 76.0761 89.3151C75.9768 89.3946 75.8969 89.4956 75.8424 89.6105C75.7878 89.7254 75.7601 89.8512 75.7613 89.9784C75.7558 90.1598 75.8112 90.3379 75.9187 90.4842C75.9638 90.5497 76.0244 90.6031 76.095 90.6397C76.1656 90.6763 76.2442 90.695 76.3238 90.694C76.5205 90.676 76.7092 90.6073 76.8715 90.4946C77.2929 90.1757 77.7458 89.9008 78.2231 89.674C78.6322 89.4905 79.0761 89.3975 79.5244 89.4012C79.968 89.3781 80.4062 89.507 80.7668 89.7664C80.9183 89.8829 81.0397 90.0341 81.1208 90.2071C81.2018 90.3802 81.2402 90.5702 81.2328 90.7612C81.2363 91.1225 81.1474 91.4786 80.9746 91.7959C80.7483 92.1883 80.4848 92.558 80.1876 92.8998C79.7995 93.3608 79.4605 93.8609 79.176 94.3921C78.9293 94.9091 78.8099 95.4775 78.8276 96.0501C78.8198 96.2111 78.8697 96.3696 78.9682 96.4971C79.0137 96.5515 79.071 96.5947 79.1357 96.6234C79.2005 96.6521 79.271 96.6657 79.3418 96.6629C79.4719 96.6672 79.599 96.6231 79.6986 96.5391C79.7951 96.45 79.8569 96.3295 79.8728 96.1991C79.9208 95.7435 80.0769 95.3061 80.3282 94.9231C80.6426 94.4639 80.9936 94.0309 81.3776 93.6281C81.7302 93.2419 82.01 92.9187 82.2171 92.6585C82.4289 92.3848 82.602 92.0833 82.7313 91.7623C82.8732 91.4066 82.9445 91.0266 82.9412 90.6437C82.9494 90.1501 82.8026 89.6663 82.5214 89.2606C82.2208 88.8418 81.8084 88.516 81.3314 88.3203Z" fill="white"/>
<path d="M90.1105 89.7643C90.2614 89.8813 90.3821 90.0325 90.4628 90.2056C90.5435 90.3786 90.5817 90.5683 90.5744 90.7591C90.5776 91.1201 90.4895 91.476 90.3183 91.7938C90.0919 92.1866 89.8276 92.5564 89.5292 92.8977C89.1417 93.3587 88.8034 93.8588 88.5197 94.39C88.273 94.907 88.1536 95.4755 88.1713 96.048C88.1626 96.2091 88.2125 96.3679 88.3119 96.495C88.3573 96.5495 88.4145 96.5928 88.4793 96.6215C88.5441 96.6503 88.6147 96.6637 88.6855 96.6608C88.815 96.6654 88.9416 96.6212 89.0402 96.537C89.1375 96.4485 89.1993 96.3277 89.2144 96.197C89.2631 95.7413 89.42 95.3038 89.6719 94.921C89.9855 94.4612 90.3365 94.0281 90.7213 93.626C91.0753 93.2398 91.3551 92.9166 91.5608 92.6564C91.7734 92.3833 91.9465 92.0816 92.075 91.7602C92.2179 91.4048 92.2892 91.0246 92.2848 90.6416C92.2939 90.1478 92.1471 89.6638 91.8651 89.2585C91.5679 88.8428 91.161 88.518 90.6898 88.3203C90.1467 88.0919 89.5621 87.9789 88.973 87.9887C88.3271 87.9939 87.6874 88.1148 87.0841 88.3455C86.4796 88.5652 85.9205 88.8938 85.4345 89.3151C85.3352 89.3946 85.2553 89.4956 85.2007 89.6105C85.1462 89.7254 85.1185 89.8512 85.1197 89.9783C85.1141 90.1598 85.1696 90.3379 85.2771 90.4841C85.3227 90.5497 85.3836 90.6031 85.4546 90.6397C85.5255 90.6763 85.6044 90.6949 85.6842 90.694C85.8802 90.6755 86.0682 90.6069 86.2299 90.4946C86.6513 90.1757 87.1042 89.9008 87.5815 89.674C87.9906 89.4905 88.4344 89.3975 88.8828 89.4012C89.3211 89.3814 89.7534 89.5092 90.1105 89.7643Z" fill="white"/>
<path d="M89.4473 99.5949C89.5465 99.4951 89.6241 99.3759 89.6753 99.2449C89.7266 99.1139 89.7504 98.9737 89.7453 98.8331C89.7497 98.691 89.7255 98.5494 89.6744 98.4168C89.6232 98.2841 89.546 98.1631 89.4473 98.0607C89.3509 97.9606 89.2346 97.8816 89.106 97.8288C88.9774 97.7761 88.8392 97.7507 88.7002 97.7543C88.5589 97.7499 88.4182 97.7749 88.2871 97.8276C88.156 97.8804 88.0372 97.9598 87.9383 98.0607C87.8397 98.1631 87.7625 98.2841 87.7113 98.4168C87.6601 98.5494 87.636 98.691 87.6403 98.8331C87.6362 98.9729 87.6608 99.1121 87.7128 99.242C87.7647 99.3718 87.8428 99.4896 87.9422 99.5881C88.0416 99.6865 88.1602 99.7634 88.2906 99.8141C88.421 99.8647 88.5604 99.888 88.7002 99.8824C88.8377 99.8879 88.9749 99.8652 89.1034 99.8157C89.2319 99.7663 89.3489 99.6912 89.4473 99.5949Z" fill="white"/>
<path d="M100.913 92.6564C101.125 92.3828 101.298 92.0812 101.427 91.7602C101.569 91.4045 101.64 91.0245 101.637 90.6416C101.645 90.148 101.498 89.6642 101.217 89.2585C100.92 88.8423 100.512 88.5174 100.04 88.3203C99.4968 88.0917 98.9121 87.9788 98.323 87.9887C97.6771 87.9937 97.0374 88.1145 96.4342 88.3455C95.8296 88.5652 95.2705 88.8938 94.7845 89.3151C94.6852 89.3946 94.6053 89.4956 94.5508 89.6105C94.4962 89.7254 94.4685 89.8512 94.4697 89.9784C94.4642 90.1598 94.5196 90.3379 94.6271 90.4842C94.6722 90.5497 94.7328 90.6031 94.8034 90.6397C94.8741 90.6763 94.9526 90.695 95.0322 90.694C95.2289 90.676 95.4176 90.6073 95.58 90.4947C96.0013 90.1757 96.4542 89.9008 96.9316 89.674C97.3379 89.4942 97.778 89.4033 98.2223 89.4075C98.6666 89.3845 99.1055 89.5132 99.4669 89.7727C99.6177 89.8897 99.7385 90.041 99.8191 90.214C99.8998 90.387 99.9381 90.5767 99.9307 90.7675C99.9342 91.1288 99.8454 91.4849 99.6726 91.8022C99.4477 92.1955 99.1841 92.5653 98.8855 92.9061C98.4975 93.3671 98.1584 93.8672 97.8739 94.3984C97.6273 94.9154 97.5078 95.4838 97.5255 96.0564C97.5178 96.2174 97.5676 96.3759 97.6661 96.5034C97.7116 96.5578 97.7689 96.601 97.8337 96.6297C97.8984 96.6584 97.9689 96.672 98.0397 96.6692C98.1699 96.6735 98.297 96.6294 98.3965 96.5454C98.493 96.4563 98.5548 96.3358 98.5707 96.2054C98.6187 95.7499 98.7748 95.3124 99.0261 94.9294C99.3406 94.4702 99.6915 94.0372 100.076 93.6344C100.428 93.2426 100.707 92.9166 100.913 92.6564Z" fill="white"/>
<path d="M98.0523 97.7543C97.9109 97.7495 97.7702 97.7743 97.639 97.8271C97.5078 97.8798 97.3891 97.9594 97.2904 98.0607C97.1915 98.163 97.1139 98.284 97.0624 98.4166C97.0109 98.5492 96.9863 98.6908 96.9903 98.8331C96.9867 98.9729 97.0119 99.112 97.0642 99.2417C97.1165 99.3715 97.1948 99.4892 97.2943 99.5875C97.3938 99.6858 97.5124 99.7627 97.6427 99.8134C97.7731 99.8642 97.9125 99.8877 98.0523 99.8825C98.1906 99.8864 98.3282 99.862 98.4567 99.8107C98.5852 99.7595 98.7018 99.6825 98.7994 99.5844C98.8982 99.4843 98.9755 99.3651 99.0268 99.2341C99.078 99.1032 99.1021 98.9631 99.0975 98.8226C99.1013 98.6805 99.077 98.5391 99.0258 98.4065C98.9747 98.274 98.8977 98.1528 98.7994 98.0502C98.7019 97.9521 98.5853 97.8752 98.4567 97.8243C98.3281 97.7734 98.1905 97.7496 98.0523 97.7543Z" fill="white"/>
</g>
<defs>
<clipPath id="clip0">
<rect width="168" height="168" fill="white"/>
</clipPath>
</defs>
</svg>
